/* XPM */
static char *_9505578df564ec386a2ea7167c1ddafOmW6ag2ASYJH3COV[] = {
/* columns rows colors chars-per-pixel */
"50 50 150 2 ",
"   c None",
".  c black",
"X  c #0F0C06",
"o  c #1C1B11",
"O  c #201C13",
"+  c #211D18",
"@  c #242017",
"#  c #25231A",
"$  c #29271D",
"%  c #2A291C",
"&  c #2E2A25",
"*  c #332F28",
"=  c #353326",
"-  c #36352A",
";  c #3A372E",
":  c #3C3A2D",
">  c #3D3A32",
",  c #433E37",
"<  c #45443A",
"1  c #49453C",
"2  c #4C4B3D",
"3  c #4C4442",
"4  c #4E4A43",
"5  c #4C4A4A",
"6  c #514B45",
"7  c #544D4A",
"8  c #515043",
"9  c #595846",
"0  c #56524C",
"q  c #59534C",
"w  c #5B5A4E",
"e  c #5C5552",
"r  c #575850",
"t  c #5E5954",
"y  c #615F4F",
"u  c #615B56",
"i  c #645E5A",
"p  c #62604E",
"a  c #646254",
"s  c #6A6856",
"d  c #67615B",
"f  c #69625E",
"g  c #6D6B5B",
"h  c #726F5C",
"j  c #73715D",
"k  c #646361",
"l  c #6C6662",
"z  c #6F6964",
"x  c #716C65",
"c  c #746E69",
"v  c #737162",
"b  c #787663",
"n  c #7C7967",
"m  c #76726C",
"M  c #7A756B",
"N  c #7D7B6A",
"B  c #777671",
"V  c #7B7571",
"C  c #7D7A72",
"Z  c #7E7E79",
"A  c #827F75",
"S  c #837F7B",
"D  c #848275",
"F  c #888677",
"G  c #8E8C77",
"H  c #83827B",
"J  c #88857B",
"K  c #8C8A7B",
"L  c #908D7B",
"P  c #94927E",
"I  c #8B8780",
"U  c #8D8A83",
"Y  c #8E8F8A",
"T  c #908C85",
"R  c #918D89",
"E  c #939283",
"W  c #989585",
"Q  c #9D9A86",
"!  c #96948C",
"~  c #9A968E",
"^  c #9D9B8E",
"/  c #979490",
"(  c #999692",
")  c #9D9A92",
"_  c #9E9E98",
"`  c #A19F8D",
"'  c #A4A28C",
"]  c #A4A295",
"[  c #A9A794",
"{  c #AAA995",
"}  c #A5A49B",
"|  c #A8A69C",
" . c #ABA99B",
".. c #B0AF9B",
"X. c #A7A4A0",
"o. c #A9A7A2",
"O. c #ADACA1",
"+. c #B1AEA4",
"@. c #B3B3A5",
"#. c #B9B8A4",
"$. c #B5B4AA",
"%. c #BBBBAC",
"&. c #BDBCB2",
"*. c #C1BFBA",
"=. c #C2C1AE",
"-. c #C2C2B4",
";. c #C5C4B9",
":. c #CBCABC",
">. c #CECEC3",
",. c #CFD0C2",
"<. c #D2D3C4",
"1. c #D6D7C9",
"2. c #DBDBCC",
"3. c #DBDCD2",
"4. c #DDDDD9",
"5. c #DFE0CF",
"6. c #DFE0D2",
"7. c #E5E6D7",
"8. c #E6E7D6",
"9. c #E2E2D3",
"0. c #E7E8D7",
"q. c #E7E7D9",
"w. c #E2E2DB",
"e. c #E8E9D9",
"r. c #EAEADA",
"t. c #EAEBDC",
"y. c #EBECDC",
"u. c #ECEDDD",
"i. c #EEEFDF",
"p. c #E9EBE0",
"a. c #EAEBE2",
"s. c #EBECE1",
"d. c #EDECE4",
"f. c #EFF0E6",
"g. c #F1F1E2",
"h. c #F2F3E3",
"j. c #F2F2E2",
"k. c #F2F3E4",
"l. c #F4F6E5",
"z. c #F5F7E6",
"x. c #F6F8E7",
"c. c #F0F1EA",
"v. c #F8F9E9",
"b. c #F9FAEA",
"n. c #FEFFEF",
"m. c #F6F8F2",
"M. c #F8F9F3",
"N. c #FFFFF4",
"B. c #FFFFF9",
"V. c #FEFFFA",
/* pixels */
"                                                                                                    ",
"                                                                                                    ",
"                                                                                                    ",
"                                                                                                    ",
"                                                                                                    ",
"                                                                                                    ",
"                                                                                                    ",
"                                                                                                    ",
"                                                                                                    ",
"                                                                                                    ",
"                                                                                                    ",
"                                                                                                    ",
"                                                        ^ O.                                        ",
"                                                      b #.<.| } &.m.                                ",
"                                                    ! P | | 7.:.C c *.B.                            ",
"                      | O.$.} ! / X.;.3.M.          D ..^ 3 m ,.z.E 3 U c.                          ",
"                    G %.<.:.+.~ A z u z R >.p.      A L ;.S 6 q ) n.>.1 c p.                        ",
"                  ^ { %.) $.;.1.9.e.2.+.x i ) &.%.  ( g %.&.e l 7 m y.u.7 V s.                      ",
"                  ! ' ] 3 3 u d c I O.1.j.1.I S C -.o.v K 9.I q x e i 2.x.0 ( 9.                    ",
"                  } h =.;.x 7 l f t q u C @.t.2.) q v E N | q.u i c t e 1.e.i | <.                  ",
"                    s L @.9.R 0 u x x l u 0 l O.j.+.1 w E d 7.&.7 l x u t 9.:.m ]                   ",
"                    _ p K W z.;.z 7 i x x x d 7 c <.] t F n x B.T 7 x x e l j.@.q ;.                ",
"                      C j D z 1.b.+.z 0 u l x x i t v   U b w ) N.m q x x q I k.t U                 ",
"                        M j F w J 0.j.&.J d t d c t O     2 N , %.b.x q x z 7 ;.[ t                 ",
"                          Y a n g 0 D :.5.:.| A d 0 @       = v > %.u.V e x l m P I                 ",
"                              a q a q 1 u K [ { ` 9 m         % 6 >  .1.V e x 4 2                   ",
"                                  q < - $ @ + + # B             % # & F -.J 6 @ 0                   ",
"                                      Z B z q 8 !                 w o . ; N 8 <                     ",
"                                          %.>.f.d.;.$.&.*.4.          Z 5 k                         ",
"                                      -.a C ( R V x l d f z C o.w.                                  ",
"                                    ( = H -.-.:.1.9.9.3.1.-.) J ( | &.                              ",
"                                    a O.6.;.$.| ) ) ) } +.-.1.2.<.:.] O.                            ",
"                                  ] s I l t e e e e e e e t i c I | >.P                             ",
"                                  0 * i l z z z z z z z l f t 6 7 m @.G &.                          ",
"                                  q > 7 f u t t t e e e u x J O.%.%.[ v                             ",
"                                  H s W K ! ~ ! ! )  .&.<.2.<.%. .Q 9                               ",
"                                    - v ` ..-.:.1.1.<.&.] K D K b 9                                 ",
"                                      . X > 4 q t a d g x v j g m                                   ",
"                                        r $ @ % : 1 8 y x C U                                       ",
"                                              H Z Z Y                                               ",
"                                                                                                    ",
"                                                                                                    ",
"                                                                                                    ",
"                                                                                                    ",
"                                                                                                    ",
"                                                                                                    ",
"                                                                                                    ",
"                                                                                                    ",
"                                                                                                    ",
"                                                                                                    "
};
