/* XPM */
static char *_ee3c72353f94490afce8a0b623a26e8OZol7jz3KIq00PZV[] = {
/* columns rows colors chars-per-pixel */
"50 50 214 2 ",
"   c #6C0905",
".  c #890804",
"X  c #901006",
"o  c #861413",
"O  c #821C1B",
"+  c #82241C",
"@  c #872A19",
"#  c #95251E",
"$  c #8A361D",
"%  c #A5200C",
"&  c #8A2323",
"*  c #853620",
"=  c #853820",
"-  c #B63C3B",
";  c #8B631A",
":  c #946C1E",
">  c #864424",
",  c #844E22",
"<  c #954A25",
"1  c #885427",
"2  c #8A5927",
"3  c #8C5A2A",
"4  c #92562A",
"5  c #9D502A",
"6  c #965D2D",
"7  c #995E2D",
"8  c #9A4137",
"9  c #9F5B35",
"0  c #B64239",
"q  c #A15D38",
"w  c #8C642F",
"e  c #95632F",
"r  c #9B612D",
"t  c #8C762E",
"y  c #947424",
"u  c #997121",
"i  c #967A28",
"p  c #9B7F2A",
"a  c #956430",
"s  c #9C6333",
"d  c #936D32",
"f  c #9A673B",
"g  c #8D7E30",
"h  c #967533",
"j  c #937A35",
"k  c #9F733A",
"l  c #A2662A",
"z  c #A66629",
"x  c #A66A2C",
"c  c #A96D2D",
"v  c #A07724",
"b  c #AE702B",
"n  c #A47D2B",
"m  c #B67524",
"M  c #B87725",
"N  c #BB7A25",
"B  c #B3742C",
"V  c #BD7B29",
"C  c #A06734",
"Z  c #A26936",
"A  c #AA6F34",
"S  c #A56D3A",
"D  c #A96E3D",
"F  c #AC7234",
"G  c #AF7832",
"H  c #A6723E",
"J  c #A9713E",
"K  c #A27D3D",
"L  c #B17535",
"P  c #B67A37",
"I  c #BA7D36",
"U  c #B27739",
"Y  c #B57C3C",
"T  c #C17F25",
"R  c #B04848",
"E  c #AB6343",
"W  c #AA6842",
"Q  c #B16D4A",
"!  c #A57040",
"~  c #AB7443",
"^  c #AC7A46",
"/  c #AD7748",
"(  c #AF7A4B",
")  c #B17D4D",
"_  c #B27F51",
"`  c #C76C5E",
"'  c #D36968",
"]  c #CA7062",
"[  c #D3706A",
"{  c #DF7675",
"}  c #E77D7D",
"|  c #92852C",
" . c #8E8531",
".. c #938A36",
"X. c #988639",
"o. c #938C39",
"O. c #8F9134",
"+. c #9B9633",
"@. c #929A36",
"#. c #93943A",
"$. c #99933E",
"%. c #939B3A",
"&. c #BE892C",
"*. c #A2853D",
"=. c #B48034",
"-. c #B98636",
";. c #B9823E",
":. c #AF9F37",
">. c #BC9630",
",. c #90A435",
"<. c #93A43C",
"1. c #94AC3D",
"2. c #94B23E",
"3. c #93B83D",
"4. c #BAA236",
"5. c #A5B23E",
"6. c #C5832C",
"7. c #C0902D",
"8. c #C48434",
"9. c #C88733",
"0. c #CA8A33",
"q. c #C5893D",
"w. c #CB8C3B",
"e. c #D28F32",
"r. c #D49235",
"t. c #D59439",
"y. c #C5AF3B",
"u. c #C3B43F",
"i. c #95C13F",
"p. c #9D9640",
"a. c #A88A44",
"s. c #B88546",
"d. c #BD874E",
"f. c #AA904D",
"g. c #B99547",
"h. c #B48154",
"j. c #B58859",
"k. c #BC8A5C",
"l. c #98A641",
"z. c #99AB41",
"x. c #96B441",
"c. c #9AB744",
"v. c #95BC41",
"b. c #9FA45F",
"n. c #A3A34B",
"m. c #B5BD41",
"M. c #BB8C63",
"N. c #BC8F68",
"B. c #BD916C",
"V. c #ABB76D",
"C. c #C58C43",
"Z. c #C2814B",
"A. c #CD9444",
"S. c #C39F4A",
"D. c #D59A45",
"F. c #D79846",
"G. c #D99C44",
"H. c #D99E4B",
"J. c #D29F50",
"K. c #E09C4E",
"L. c #DEA246",
"P. c #C7A858",
"I. c #D9A658",
"U. c #DCA65A",
"Y. c #CDB450",
"T. c #C5BC54",
"R. c #E1A648",
"E. c #E5AA4B",
"W. c #EAAE4D",
"Q. c #ECB04E",
"!. c #E3AC50",
"~. c #E5B155",
"^. c #E7B759",
"/. c #E4B65B",
"(. c #C19265",
"). c #D8BC65",
"_. c #EBBD63",
"`. c #E8BC66",
"'. c #96C442",
"]. c #96CC43",
"[. c #99C846",
"{. c #97D444",
"}. c #98D744",
"|. c #9DD34A",
" X c #9CD156",
".X c #A7C645",
"XX c #ABC241",
"oX c #A4CE4B",
"OX c #A1D148",
"+X c #B5C755",
"@X c #A9D756",
"#X c #B9C865",
"$X c #A6D36B",
"%X c #A8CD75",
"&X c #B0CB7F",
"*X c #B3DA7E",
"=X c #C5C45E",
"-X c #CFC364",
";X c #D9C369",
":X c #E4C568",
">X c #EBC36D",
",X c #E2D168",
"<X c #ECC572",
"1X c #ECC875",
"2X c #E9C87A",
"3X c #D09690",
"4X c #EE8585",
"5X c #F38989",
"6X c #F39291",
"7X c #BAC390",
"8X c #EECE83",
"9X c #EACF8A",
"0X c #EED189",
"qX c #EDDA8C",
/* pixels */
"}.}.}.}.}.}.}.}.}.}.}.}.}.}.}.}.}.}.}.}.}.}.}.}.}.}.}.}.}.}.}.}.}.}.}.}.}.}.}.}.}.}.}.}.}.}.}.}.}.}.",
"}.}.}.}.}.}.}.}.}.}.}.}.}.}.}.}.{.}.}.}.}.}.}.c.a.*.X.%.{.}.}.}.}.}.}.}.}.}.}.}.}.}.}.}.}.}.}.}.}.}.",
"}.}.}.}.}.}.}.}.}.}.}.}.}.}.}.[.j.f.[.}.}.}.n.~ H s Z s ..{.}.}.}.}.}.}.}.}.}.}.}.}.}.}.}.}.}.}.}.}.",
"}.}.}.}.}.}.}.}.}.}.}.}.}.}.}.n.J J H '.{.n.~ J a.Y.g.7 4 d x.}.}.}.}.}.}.}.}.}.}.}.}.}.}.}.}.}.}.}.",
"}.}.}.}.}.}.}.}.}.}.}.}.}.}.@XP.J J / ! ^ J J H ,XqX/.g.7 7 7 v.}.}.}.}.}.}.}.}.}.}.}.}.}.}.}.}.}.}.",
"}.}.}.}.}.}.}.}.}.}.}.}.}.{.#X)./ H J J J J J s.:X3X% P.7 S s d }.}.}.}.}.}.}.}.}.}.}.}.}.}.}.}.}.}.",
"}.}.}.}.}.}.}.}.}.}.}.}.[.f.) / / ) ~ ! H s 7 S.K.0 8 Z.7 J S 7 v.}.}.}.}.}.}.}.}.}.}.}.}.}.}.}.}.}.",
"}.}.}.}.}.}.}.}.}.}.}.}...J J J J J J ~ S J s F F..   x Z J J r 1.}.}.}.}.}.}.}.}.}.}.}.}.}.}.}.}.}.",
"}.}.}.}.}.}.}.}.}.}.}.}.1 Z J J J J 7 3 S S J Z ;.5 s S S J J s <.}.}.}.}.}.}.}.}.}.}.}.}.}.}.}.}.}.",
"}.}.}.}.}.}.}.}.}.}.}.}.w S s Z J J 3 , J J J J S S S J J J J 7 <.}.}.}.}.}.}.}.}.}.}.}.}.}.}.}.}.}.",
"}.}.}.}.}.}.}.}.}.}.}.}.o.f b.<.s S s s J J J J S s < S J J S 7 1.}.}.}.}.}.}.}.}.}.}.}.}.}.}.}.}.}.",
"}.}.}.}.}.}.}.}.}.}.}.}.].7X%X}.V.f r s s s s 6 $ X < J J S 7 7 ].}.}.}.}.}.}.}.}.}.}.}.}.}.}.}.}.}.",
"}.}.}.}.}.}.}.}.}.}.}.}.}.$X%X}.*X&Xv.h @ @ @ # - 0 S J S s 7 #.}.}.}.}.}.}.}.}.}.}.}.}.}.}.}.}.}.}.",
"}.}.}.}.}.}.}.}.}.}.}.}.}.}. X}.|.$X'.4 o O R { [ E S s 7 7  .{.}.}.}.}.}.}.}.}.}.}.}.}.}.}.}.}.}.}.",
"}.}.}.}.}.}.}.}.}.}.}.}.}.}.{.{.'.%.> O & ' 5X{ E s 7 7 4 4 <.}.}.}.}.}.}.}.}.}.}.}.}.}.}.}.}.}.}.}.",
"}.}.}.}.}.}.}.}.}.}.{.3.g 1 > * + O & R } 5X[ q 7 4 4 4 6 7 v.}.}.}.}.}.}.].{.}.}.}.}.}.}.}.}.}.}.}.",
"}.}.}.}.}.}.}.}.}.{.t + O O = 2 3 9 ] 6X4X` s Z q.r 7 7 7 h }.}.}.}.}.}.2.n +.}.}.}.}.}.}.}.}.}.}.}.",
"}.}.}.}.}.}.}.}.}.@.O O +  .].{.v.k D Q W d z.E.G.7 7 7 l 5.}.}.}.}.}.].p ; i }.}.}.}.}.}.}.}.}.}.}.",
"}.}.}.}.}.}.}.}.{.> * + O.}.}.}.}.'.#.j j '.Y.E.Y S z M 7.}.}.}.}.}.}.1.: ; u {.}.}.}.}.}.}.}.}.}.}.",
"}.}.}.}.}.}.}.}.{.$ 2.1 ].}.}.}.}.}.}.{.{.XXW.F.8.r.V N XX}.}.}.}.}.{.| ; u y }.}.}.}.}.}.}.}.}.}.}.",
"}.}.}.}.}.}.}.}.i.@.}.1.{.}.}.}.}.}.}.}.oX/.L.J I 0.N 4.}.}.}.}.}.}.'.u ; v | }.}.}.}.}.}.}.}.}.}.}.",
"}.}.}.}.}.}.}.}.{.}.}.}.}.}.}.}.}.}.}.oX;X>X;.J S M &.OX}.}.}.}.}.}.@.u ; u ,.}.}.}.}.}.}.}.}.}.}.}.",
"}.}.}.}.}.}.}.}.}.}.}.}.}.}.}.}.}.}.oXY.`.C.J J s r XX}.}.}.}.}.}.}...: u y }.}.}.}.}.}.}.}.}.}.}.}.",
"}.}.}.}.}.}.}.}.}.}.}.}.}.}.}.}.}.+X2X`.C.J J s 7 %.}.}.}.}.}.}.}.x.k 2 i 2.}.}.}.}.}.}.}.}.}.}.}.}.",
"}.}.}.}.}.}.}.}.}.}.}.}.}.}.}.{.T.`.>XJ.J J s 7 ..}.}.}.}.}.}.}.x.H C h ].}.}.}.}.}.}.}.}.}.}.}.}.}.",
"}.}.}.}.}.}.}.}.}.}.}.}.}.}.OX-X8X!.F.I 8.V m >.{.}.}.}.}.}.}.v.=.A e v.}.}.}.}.}.}.}.}.}.}.}.}.}.}.",
"}.}.}.}.}.}.}.}.}.}.}.}.}.OX).1X2X!.J 8.6.N &.OX}.}.}.}.}.}.{.-.r.b <.}.}.}.}.}.}.}.}.}.}.}.}.}.}.}.",
"}.}.}.}.}.}.}.}.}.}.}.}.OX;X!._./.Y J F N &..X}.}.}.}.}.}.}.l.J B p }.}.}.}.}.}.}.}.}.}.}.}.}.}.}.}.",
"}.}.}.}.}.}.}.}.}.}.}.}.;X0X<XE.C.J S 7 N m.}.}.}.}.{.}.}.}.X.J s 1.}.}.}.}.}.}.}.}.}.}.}.}.}.}.}.}.",
"}.}.}.}.}.}.}.}.}.}.}.=X1X1X2XG.J J s 7 X..Xm.u.y.:.$.l.v.{.K 9.z v.}.}.}.}.}.}.}.}.}.}.}.}.}.}.}.}.",
"}.}.}.}.}.}.}.}.}.}.oX~.<X>X~.Y J s 7 l =.t.F.H.H.H.h.( ~ K G r.T <.}.}.}.}.}.}.}.}.}.}.}.}.}.}.}.}.",
"}.}.}.}.}.}.}.}.}.}.-X/.E.W.A.J S z m V I t.t.t.r.Y / ) j._ J Z c d {.}.}.}.}.}.}.}.}.}.}.}.}.}.}.}.",
"}.}.}.}.}.}.}.}.}.|.9X8X>XR.J U 6.N N L J 9.t.e.U J J J -.t.q.J 7 s o.}.}.}.}.}.}.}.}.}.}.}.}.}.}.}.",
"}.}.}.}.}.}.}.}.}.+X1X0X1XF.J e.9.N N L J F e.L S S J I r.t.t.r.z A x x.}.}.}.}.}.}.}.}.}.}.}.}.}.}.",
"}.}.}.}.}.}.}.}.}.T.>X<X_.;.J U 9.N N l 7 7 r 7 7 7 c r.r.r.t.r.6.B r.n {.}.}.}.}.}.}.}.}.}.}.}.}.}.",
"}.}.}.}.}.}.}.}.{.Y.E.E.E.J J J J Z 7 4 7 7 7 7 7 7 L P U P I P b z P s <.}.}.}.}.}.}.}.}.}.}.}.}.}.",
"}.}.}.}.}.}.}.[.$.A.W.W.R.J J J J J S s N M m 6.6.J J J J J J J s 4 J s j }.}.}.}.}.}.}.}.}.}.}.}.}.",
"}.}.}.}.}.}.'.K J s.W.Q.E.J J J J J J J 0.r.t.t.8.J J J J J J Z 7 4 J Z e }.}.}.}.}.}.}.}.}.}.}.}.}.",
"}.}.}.}.}.{.K J J J R.W.W.J J J J J J J I r.t.r.J J J J J S s 7 7 b I S 7 '.}.}.}.}.}.}.}.}.}.}.}.}.",
"}.}.}.}.}.l.J J ( J w.E.E.P C S J J J J J 9.r.I J J J S s 7 7 7 6 0.t.Z 7 v.}.}.}.}.}.}.}.}.}.}.}.}.",
"}.}.}.}.}.p.J J ~ h.r.t.E.F.7 7 s s Z S S D L S Z s r 7 7 7 7 6 C A.t.c 7 '.}.}.}.}.}.}.}.}.}.}.}.}.",
"}.}.}.}.}.$.J J J j.G.t.t.L.L 7 7 7 7 7 7 7 7 7 7 7 7 7 7 7 r C ( h.L r e }.}.}.}.}.}.}.}.}.}.}.}.}.",
"}.}.}.}.}.%.S J J J U.H.t.r.0.r 7 7 7 7 7 7 7 7 7 7 7 6 z I r.d.k.J s 7 ..}.}.}.}.}.}.}.}.}.}.}.}.}.",
"}.}.}.}.}.'.a S J J r.U.U.w.J J S s B c l l l 7 s s Z F r.F.U.k.~ s 7 e '.}.}.}.}.}.}.}.}.}.}.}.}.}.",
"}.}.}.}.}.}.#.7 Z J 9.e.d.B.M.) ~ J 8.t.t.t.r.J J ~ ( j.(.I.G.J s 7 7 z.}.}.}.}.}.}.}.}.}.}.}.}.}.}.",
"}.}.}.}.}.}.{...7 s A J J ~ _ M.B.N.M.I.U.U.I.M.N.B.N.h./ J A 7 7 e 1.}.}.}.}.}.}.}.}.}.}.}.}.}.}.}.",
"}.}.}.}.}.}.}.{.<.a 7 r s Z S S ~ / ( s.F.H.C.( / ~ J S s r 7 7 j '.}.}.}.}.}.}.}.}.}.}.}.}.}.}.}.}.",
"}.}.}.}.}.}.}.}.}.'.#.a 7 7 7 7 7 s s s Z B Z C s s 7 7 7 e j 2.{.}.}.}.}.}.}.}.}.}.}.}.}.}.}.}.}.}.",
"}.}.}.}.}.}.}.}.}.}.}.].2.o.d e 7 7 7 7 7 7 7 7 7 7 a j %.'.{.}.}.}.}.}.}.}.}.}.}.}.}.}.}.}.}.}.}.}.",
"}.}.}.}.}.}.}.}.}.}.}.}.}.}.{.].v.<.%.#.o.#.#.<.2.'.{.{.}.}.}.}.}.}.}.}.}.}.}.}.}.}.}.}.}.}.}.}.}.}."
};
