/* XPM */
static char *_a82a072479344cf8b89380d76b7a02eepRUj9oDiI5mILSd[] = {
/* columns rows colors chars-per-pixel */
"50 50 218 2 ",
"   c #450606",
".  c #5F312D",
"X  c #911E0D",
"o  c #881410",
"O  c #821C1B",
"+  c #B31A0B",
"@  c #882418",
"#  c #832A1E",
"$  c #86321F",
"%  c #8E371A",
"&  c #B13D1B",
"*  c #962E2E",
"=  c #853621",
"-  c #92352D",
";  c #9C3434",
":  c #AE3230",
">  c #804A1F",
",  c #865E18",
"<  c #8B621A",
"1  c #92691D",
"2  c #874523",
"3  c #874925",
"4  c #984B28",
"5  c #885627",
"6  c #925127",
"7  c #925629",
"8  c #975D2D",
"9  c #985E2D",
"0  c #9A5131",
"q  c #8B632B",
"w  c #8D6829",
"e  c #986C27",
"r  c #94632E",
"t  c #9B612D",
"y  c #94692F",
"u  c #8E7729",
"i  c #9B7322",
"p  c #99782B",
"a  c #956530",
"s  c #9C6332",
"d  c #946B30",
"f  c #9F6B36",
"g  c #9B6C39",
"h  c #8D7C30",
"j  c #947433",
"k  c #937C34",
"l  c #9C7239",
"z  c #9D7B3B",
"x  c #AD6D26",
"c  c #A1652C",
"v  c #A4692C",
"b  c #AB6D2B",
"n  c #A67929",
"m  c #B47325",
"M  c #BC7B26",
"N  c #B1732C",
"B  c #BC7C2C",
"V  c #A06736",
"C  c #A26935",
"Z  c #A96E37",
"A  c #A56C3A",
"S  c #A86F3D",
"D  c #B56D33",
"F  c #AD7335",
"G  c #A97637",
"H  c #A6733D",
"J  c #A9713E",
"K  c #A3793C",
"L  c #B27635",
"P  c #B67A35",
"I  c #BA7C35",
"U  c #B0753A",
"Y  c #B4793A",
"T  c #BA7F3C",
"R  c #E84D37",
"E  c #B24A4A",
"W  c #9B6B41",
"Q  c #A86140",
"!  c #B4624C",
"~  c #B46C4C",
"^  c #A67441",
"/  c #AB7443",
"(  c #AE7947",
")  c #AF7C4B",
"_  c #B07947",
"`  c #B27C4C",
"'  c #BE6656",
"]  c #B77051",
"[  c #B27E51",
"{  c #C3675A",
"}  c #E47551",
"|  c #D56B6B",
" . c #DB7671",
".. c #E67D7C",
"X. c #8D8529",
"o. c #96872D",
"O. c #8F8833",
"+. c #938336",
"@. c #938D37",
"#. c #988A31",
"$. c #948739",
"%. c #938B3A",
"&. c #909735",
"*. c #94953A",
"=. c #99953E",
"-. c #939B3B",
";. c #BD8228",
":. c #BF8035",
">. c #BB823D",
",. c #A5943B",
"<. c #BD9A33",
"1. c #8DAA38",
"2. c #93A33B",
"3. c #9EA23E",
"4. c #94AB3D",
"5. c #94B13D",
"6. c #96BA3F",
"7. c #B7AF3A",
"8. c #B7B33D",
"9. c #BAB93F",
"0. c #C3812D",
"q. c #CA882E",
"w. c #D08D2F",
"e. c #C38333",
"r. c #CD8C33",
"t. c #CB8B37",
"y. c #C7893A",
"u. c #D08E32",
"i. c #CA9436",
"p. c #D49336",
"a. c #D59539",
"s. c #95C23F",
"d. c #9A9A40",
"f. c #9B9353",
"g. c #A68647",
"h. c #B98448",
"j. c #A49C49",
"k. c #B48155",
"l. c #B8875B",
"z. c #BD8B5A",
"x. c #AD9451",
"c. c #B09B57",
"v. c #98AE43",
"b. c #96BD42",
"n. c #9BBB47",
"m. c #B7BC41",
"M. c #A1B35B",
"N. c #BA8B64",
"B. c #BC8F69",
"V. c #BE916C",
"C. c #C28A44",
"Z. c #DC8841",
"A. c #CF9444",
"S. c #C09D4E",
"D. c #D49A44",
"F. c #D89C47",
"G. c #D59B49",
"H. c #DA9F4C",
"J. c #C38E51",
"K. c #C8A54D",
"L. c #DBA24D",
"P. c #D8AC4C",
"I. c #C3A650",
"U. c #DBA454",
"Y. c #DAA75F",
"T. c #C9B854",
"R. c #D0BC5D",
"E. c #E1A547",
"W. c #E2A648",
"Q. c #E5AA4B",
"!. c #E9AD4C",
"~. c #E0B14F",
"^. c #ECB04E",
"/. c #E4AE52",
"(. c #E9B153",
"). c #E7B55A",
"_. c #D09E62",
"`. c #DDA960",
"'. c #C6B364",
"]. c #D2BF61",
"[. c #E7BB64",
"{. c #95C342",
"}. c #99C546",
"|. c #96CC43",
" X c #9BCF46",
".X c #97D343",
"XX c #98D744",
"oX c #9CD349",
"OX c #9DD05A",
"+X c #A4C342",
"@X c #ABC843",
"#X c #A5CD4B",
"$X c #B0C44B",
"%X c #A3D64E",
"&X c #B6C654",
"*X c #B9CE63",
"=X c #A8D769",
"-X c #ABCE7B",
";X c #C1C55C",
":X c #D7C15D",
">X c #C7C560",
",X c #CCC261",
"<X c #D6C368",
"1X c #E3C863",
"2X c #EBC36C",
"3X c #ECC672",
"4X c #ECC875",
"5X c #EBC578",
"6X c #ECCA7B",
"7X c #EEE37F",
"8X c #B6B889",
"9X c #EC8282",
"0X c #F48A8A",
"qX c #F29191",
"wX c #E8AB8D",
"eX c #BACA98",
"rX c #EDCE86",
"tX c #EDD08A",
/* pixels */
"XXXXXXXXXXXXXXXXXXXXXXXXXXXXXXXXXXXXXXXXXXXXXXXXXXXXXXXXXXXXXXXXXXXXXXXXXXXXXXXXXXXXXXXXXXXXXXXXXXXX",
"XXXXXXXXXXXXXXXXXXXXXXXXXXXXXXXXXXXXXXXXXXXXXX}.j.,.,.*.}.XXXXXXXXXXXXXXXXXXXXXXXXXXXXXXXXXXXXXXXXXX",
"XXXXXXXXXXXXXXXXXXXXXXXXXXXXXX Xc.x.}.XXXXXXn.) J A C C y |.XXXXXXXXXXXXXXXXXXXXXXXXXXXXXXXXXXXXXXXX",
"XXXXXXXXXXXXXXXXXXXXXXXXXXXXXXv./ J H b.XXn.) J H I.I.s 8 q *..XXXXXXXXXXXXXXXXXXXXXXXXXXXXXXXXXXXXX",
"XXXXXXXXXXXXXXXXXXXXXXXXXXXX%X'.J J / ^ g./ J J S.7X1X:X8 8 9 +.XXXXXXXXXXXXXXXXXXXXXXXXXXXXXXXXXXXX",
"XXXXXXXXXXXXXXXXXXXXXXXXXXXX*X<X/ J J J J J J J 1XwX- Z.f s A 8 4.XXXXXXXXXXXXXXXXXXXXXXXXXXXXXXXXXX",
"XXXXXXXXXXXXXXXXXXXXXXXX Xx.k.` _ ` / S J f s G 1XR . } G C J f k XXXXXXXXXXXXXXXXXXXXXXXXXXXXXXXXXX",
"XXXXXXXXXXXXXXXXXXXXXXXX%.J J J J J J / / J V t ~.+   & t S J C y .XXXXXXXXXXXXXXXXXXXXXXXXXXXXXXXXX",
"XXXXXXXXXXXXXXXXXXXXXXXX5 f J J J J C 5 S A J C U D 6 V C J J A r .XXXXXXXXXXXXXXXXXXXXXXXXXXXXXXXXX",
"XXXXXXXXXXXXXXXXXXXXXXXXq A C C J J s > S S J J J S A J J J J C r .XXXXXXXXXXXXXXXXXXXXXXXXXXXXXXXXX",
"XXXXXXXXXXXXXXXXXXXXXXXX$.f f.-.s C C 7 J J J J S A 6 f A J J s y .XXXXXXXXXXXXXXXXXXXXXXXXXXXXXXXXX",
"XXXXXXXXXXXXXXXXXXXXXXXX|.8X-XXXM.W 9 s s s s t 6 @ X J J J C 8 k XXXXXXXXXXXXXXXXXXXXXXXXXXXXXXXXXX",
"XXXXXXXXXXXXXXXXXXXXXXXXXX=X-XXX=XeX5.k % % $ @ : : 4 J J C 8 r b.XXXXXXXXXXXXXXXXXXXXXXXXXXXXXXXXXX",
"XXXXXXXXXXXXXXXXXXXXXXXXXXXXOXXXoX-X.Xg o O * |  .{ S C s 8 8 4.XXXXXXXXXXXXXXXXXXXXXXXXXXXXXXXXXXXX",
"XXXXXXXXXXXXXXXXXXXXXXXXXXXXXXXX.Xv.w @ O E 9X9X' s 9 8 8 7 y .XXXXXXXXXXXXXXXXXXXXXXXXXXXXXXXXXXXXX",
"XXXXXXXXXXXXXXXXXXXXXXs.O.w 5 2 = @ O ; | 0X..! 9 8 7 7 8 8 k XX5.4..XXXXXXXXXXXXXXXXXXXXXXXXXXXXXXX",
"XXXXXXXXXXXXXXXXXX.Xh # O O # 3 5 0 ! qX0X .Q t P L 8 8 8 8 4.|.n i o.|.XXXXXXXXXXXXXXXXXXXXXXXXXXXX",
"XXXXXXXXXXXXXXXXXX&.O O O u {..X{.l ^ ] ~ f *.K.!.C 8 8 9 n .X.Xp < i X..XXXXXXXXXXXXXXXXXXXXXXXXXXX",
"XXXXXXXXXXXXXXXX.X= $ O O..XXXXXXX{.*.z j 4.$XQ.A.A c x M 9.XXXX#.1 1 i 1.XXXXXXXXXXXXXXXXXXXXXXXXXX",
"XXXXXXXXXXXXXXXXs.# 5.3 |.XXXXXXXXXXXX.X.X XP.Q.T r.q.M <.XXXXXX6.i , n u XXXXXXXXXXXXXXXXXXXXXXXXXX",
"XXXXXXXXXXXXXXXX4.&.XX2..XXXXXXXXXXXXXXXXXR.W.h.F p.M ;.@XXXXXXX.Xp < 1 i {.XXXXXXXXXXXXXXXXXXXXXXXX",
"XXXXXXXXXXXXXXXX.XXXXX.XXXXXXXXXXXXXXXXX>X6XA.J J N M 8.XXXXXXXXXX4.i , i 4.XXXXXXXXXXXXXXXXXXXXXXXX",
"XXXXXXXXXXXXXXXXXXXXXXXXXXXXXXXXXXXXoXT.2XU.J J C 9 ,.XXXXXXXXXXXX|.o.e w {.XXXXXXXXXXXXXXXXXXXXXXXX",
"XXXXXXXXXXXXXXXXXXXXXXXXXXXXXXXXXX#X<X5XD.J J C 8 j |.XXXXXXXXXXXXXX=.s j XXXXXXXXXXXXXXXXXXXXXXXXXX",
"XXXXXXXXXXXXXXXXXXXXXXXXXXXXXXXX&X[.3X[.J J A 9 y {.XXXXXXXXXXXXXXd.J t -.XXXXXXXXXXXXXXXXXXXXXXXXXX",
"XXXXXXXXXXXXXXXXXXXXXXXXXXXXoX>XrX/.L.>.I I m M +XXXXXXXXXXXXXXX3.Y f j .XXXXXXXXXXXXXXXXXXXXXXXXXXX",
"XXXXXXXXXXXXXXXXXXXXXXXXXXoX].4X6X).T I r.M M m.XXXXXXXXXXXXXXb.r.w.r {.XXXXXXXXXXXXXXXXXXXXXXXXXXXX",
"XXXXXXXXXXXXXXXXXXXXXXXXoX<X/.[.).C.J F M M 8.XXXXXXXXXXXXXX.Xz P N -.XXXXXXXXXXXXXXXXXXXXXXXXXXXXXX",
"XXXXXXXXXXXXXXXXXXXXXXXX<XtX3XW.A.J S s m <.XXXXXXXXXXXXXXXXb.J A r |.XXXXXXXXXXXXXXXXXXXXXXXXXXXXXX",
"XXXXXXXXXXXXXXXXXXXXXX;X4X4XrXW.J J s 8 d +X@Xm.9.7.-.4.b.|.v.Y B j XXXXXXXXXXXXXXXXXXXXXXXXXXXXXXXX",
"XXXXXXXXXXXXXXXXXXXX#X).3X2X).>.J C 8 t b i.D.F.H.H.C.) ^ K z q.r.m .XXXXXXXXXXXXXXXXXXXXXXXXXXXXXXX",
"XXXXXXXXXXXXXXXXXXXX,X)./.(.D.J S c m M Y a.a.a.a.y.( ` k.k./ A N t -.XXXXXXXXXXXXXXXXXXXXXXXXXXXXXX",
"XXXXXXXXXXXXXXXXXX#XtX6X[.W.U F 0.M M B J e.a.p.e.J J J F t.A.Y s s a b.XXXXXXXXXXXXXXXXXXXXXXXXXXXX",
"XXXXXXXXXXXXXXXXXX&X6XtX4XG.J u.r.M M B J J u.e.S S J J r.a.a.p.e.9 L j .XXXXXXXXXXXXXXXXXXXXXXXXXXX",
"XXXXXXXXXXXXXXXXXXT.3X3X[.>.J Y r.M M x s s c 9 9 9 s e.p.p.p.p.p.m e.q.*.XXXXXXXXXXXXXXXXXXXXXXXXXX",
"XXXXXXXXXXXXXXXXXXP.Q.(.!.J J J J Z t 8 8 8 8 9 9 8 C I P Y I I P x b L r |.XXXXXXXXXXXXXXXXXXXXXXXX",
"XXXXXXXXXXXXXX|.=.D.!.Q.W.J / J J J A s m m m M 0.A J J J J J J A 8 t J 9 2.XXXXXXXXXXXXXXXXXXXXXXXX",
"XXXXXXXXXXXXb.K J C.!.^.Q.J J J J J J J :.p.p.p.u.J J J J J J S s 8 s J s k XXXXXXXXXXXXXXXXXXXXXXXX",
"XXXXXXXXXX|.K J J J Q.^.!.J J J J J J J U p.a.p.:.J J J J J C 9 8 8 0.J s d XXXXXXXXXXXXXXXXXXXXXXXX",
"XXXXXXXXXXd.J J ( J a.!.!.P C A J J J J J e.p.r.J J J S C s 8 9 8 c a.e.s d .XXXXXXXXXXXXXXXXXXXXXXX",
"XXXXXXXXXXz J J / ` p.a.W.D.8 8 s f C A A S I A A C s 9 8 8 9 8 8 P G.u.9 d XXXXXXXXXXXXXXXXXXXXXXXX",
"XXXXXXXXXXl J J J z.D.a.a.E.F 8 9 8 8 8 8 9 8 8 8 8 8 9 8 8 8 t C k._ P 9 k XXXXXXXXXXXXXXXXXXXXXXXX",
"XXXXXXXXXX$.S J J U Y.F.a.a.t.t 8 8 8 8 9 9 9 8 9 8 8 8 9 b e.t.l.k.S t 8 4.XXXXXXXXXXXXXXXXXXXXXXXX",
"XXXXXXXXXX5.s A J J a.`.U.t.F J f s b v t t t t 8 s s C e.a.L.Y.[ S s 8 j XXXXXXXXXXXXXXXXXXXXXXXXXX",
"XXXXXXXXXX.Xk 9 C J r.p.J.V.l.) / J :.p.a.a.a.I J J / ` l._.U.y.A 9 8 d {.XXXXXXXXXXXXXXXXXXXXXXXXXX",
"XXXXXXXXXXXX|.j 8 s F J J / k.B.V.B.l.H.U.U.U.z.N.B.V.N.k./ L C 8 8 d b.XXXXXXXXXXXXXXXXXXXXXXXXXXXX",
"XXXXXXXXXXXXXX|.%.r 8 s f C A J / ) [ k.G.L.G.[ ) / J J A s 9 8 8 %.|.XXXXXXXXXXXXXXXXXXXXXXXXXXXXXX",
"XXXXXXXXXXXXXXXXXXb.$.r 8 8 8 9 s s f V C I F C V f s 9 8 8 r $.b.XXXXXXXXXXXXXXXXXXXXXXXXXXXXXXXXXX",
"XXXXXXXXXXXXXXXXXXXXXX|.4.+.a 8 8 8 8 8 8 8 8 8 8 8 8 r +.4.|.XXXXXXXXXXXXXXXXXXXXXXXXXXXXXXXXXXXXXX",
"XXXXXXXXXXXXXXXXXXXXXXXXXXXX.X{.5.2.*.@.@.@.@.*.2.5.{..XXXXXXXXXXXXXXXXXXXXXXXXXXXXXXXXXXXXXXXXXXXXX"
};
