/* XPM */
static char *_19e2534666a47d2f8e7619c862d56f3DUluHCTEYUSIUxmv[] = {
/* columns rows colors chars-per-pixel */
"50 50 213 2 ",
"   c #780704",
".  c #910702",
"X  c #831B16",
"o  c #821B1B",
"O  c #872618",
"+  c #8F3317",
"@  c #B3200A",
"#  c #872922",
"$  c #952E2E",
"%  c #853721",
"&  c #863E22",
"*  c #933923",
"=  c #983030",
"-  c #A02523",
";  c #855E17",
":  c #8B631A",
">  c #956C1F",
",  c #874C24",
"<  c #8A5728",
"1  c #935529",
"2  c #965D2D",
"3  c #985E2E",
"4  c #965F30",
"5  c #9A5E31",
"6  c sienna",
"7  c #B1443F",
"8  c #A25D31",
"9  c #8A642B",
"0  c #956F26",
"q  c #996F22",
"w  c #95622F",
"e  c #9D622D",
"r  c #936C2F",
"t  c #8D7429",
"y  c #9C7322",
"u  c #987624",
"i  c #956432",
"p  c #9C6332",
"a  c #946B32",
"s  c #9E6B39",
"d  c #8C7A32",
"f  c #927333",
"g  c #967837",
"h  c #A66827",
"j  c #AC6D26",
"k  c #A1642B",
"l  c #AB6E2D",
"z  c #A27B27",
"x  c #AD712D",
"c  c #B57426",
"v  c #BC7A25",
"b  c #B3732B",
"n  c #BA7928",
"m  c #A16736",
"M  c #A36A36",
"N  c #AA6E33",
"B  c #A26439",
"V  c #A46C3A",
"C  c #A86F3C",
"Z  c #AE7336",
"A  c #A6723D",
"S  c #AA713E",
"D  c #A07A3E",
"F  c #B17636",
"G  c #B77B37",
"H  c #BB7C34",
"J  c #B27639",
"K  c #B37A3C",
"L  c #C27E25",
"P  c #CC7B37",
"I  c #A24C42",
"U  c #B94140",
"Y  c #BD5043",
"T  c #9F7450",
"R  c #AB6942",
"E  c #B4684B",
"W  c #AB7442",
"Q  c #AB7846",
"!  c #AD7946",
"~  c #B37B43",
"^  c #B87E40",
"/  c #B17B4B",
"(  c #B17E50",
")  c #BC7670",
"_  c #C15858",
"`  c #C86A5E",
"'  c #D46F6A",
"]  c #DF7575",
"[  c #E57A7A",
"{  c #97812C",
"}  c #8E8533",
"|  c #8D8E30",
" . c #988739",
".. c #938C38",
"X. c #8F9034",
"o. c #919236",
"O. c #9A9435",
"+. c #93943A",
"@. c #939B3B",
"#. c #989D3E",
"$. c #BE902F",
"%. c #AA873C",
"&. c #B98134",
"*. c #B9833E",
"=. c #BE9832",
"-. c #93A33C",
";. c #98A538",
":. c #93AC3D",
">. c #93B43D",
",. c #94BA3E",
"<. c #BAAD3D",
"1. c #ADBE3E",
"2. c #C58427",
"3. c #CD8827",
"4. c #C4822A",
"5. c #CB892E",
"6. c #D18D2F",
"7. c #DA932D",
"8. c #C28334",
"9. c #CC8B34",
"0. c #C6893A",
"q. c #D18F33",
"w. c #CC903F",
"e. c #D69435",
"r. c #D99633",
"t. c #D59439",
"y. c #D7993F",
"u. c #D99B3F",
"i. c #E7803F",
"p. c #D7A83E",
"a. c #9C9B42",
"s. c #A88049",
"d. c #BA8A44",
"f. c #A19245",
"g. c #A9914E",
"h. c #B79248",
"j. c #B48155",
"k. c #B7875C",
"l. c #BB8959",
"z. c #99A743",
"x. c #95B341",
"c. c #9BB645",
"v. c #94BC41",
"b. c #A5B548",
"n. c #BABA46",
"m. c #BA8C64",
"M. c #BE926C",
"N. c #ACA077",
"B. c #C08641",
"V. c #C58C41",
"C. c #C98D49",
"Z. c #CC9241",
"A. c #D09645",
"S. c #D69A44",
"D. c #D99C45",
"F. c #D89D48",
"G. c #C28E56",
"H. c #C89959",
"J. c #C1A14D",
"K. c #DDA245",
"L. c #DCA24C",
"P. c #C7B34B",
"I. c #DAB04D",
"U. c #C5A250",
"Y. c #CDAD52",
"T. c #DBA254",
"R. c #D5B859",
"E. c #E4A94B",
"W. c #EBAF4D",
"Q. c #ECB04E",
"!. c #E2AD52",
"~. c #E5B155",
"^. c #E4B75B",
"/. c #E9B95E",
"(. c #C3956B",
"). c #E6807D",
"_. c #D4A366",
"`. c #DEAB63",
"'. c #CDB468",
"]. c #DFBF6C",
"[. c #EBBC62",
"{. c #E6BB69",
"}. c #95C443",
"|. c #96CC43",
" X c #9BCD47",
".X c #99C74B",
"XX c #97D343",
"oX c #98D744",
"OX c #9AD449",
"+X c #9ECB5E",
"@X c #9AD053",
"#X c #A5CA44",
"$X c #A5CD4C",
"%X c #A0D64B",
"&X c #B2C956",
"*X c #B8C658",
"=X c #A3D363",
"-X c #C7C563",
";X c #C3D96D",
":X c #ECC26C",
">X c #E7D869",
",X c #EBC572",
"<X c #E9C776",
"1X c #ECC875",
"2X c #F38989",
"3X c #F69594",
"4X c #B0D087",
"5X c #BED899",
"6X c #EECE85",
"7X c #E9CD8A",
"8X c #EED494",
"9X c #F0D698",
"0X c #D5D8CD",
/* pixels */
"oXoXoXoXoXoXoXoXoXoXoXoXoXoXoXoXoXoXoXoXoXoXoXoXoXoXoXoXoXoXoXoXoXoXoXoXoXoXoXoXoXoXoXoXoXoXoXoXoXoX",
"oXoXoXoXoXoXoXoXoXoXoXoXoXoXoXoXoXoXoXoXoXoXoXz.D M s +.XXoXoXoXoXoXoXoXoXoXoXoXoXoXoXoXoXoXoXoXoXoX",
"oXoXoXoXoXoXoXoXoXoXoXoXoXoXoXb.( f. XoXoXoXg.W S p m p } oXoXoXoXoXoXoXoXoXoXoXoXoXoXoXoXoXoXoXoXoX",
"oXoXoXoXoXoXoXoXoXoXoXoXoXoXoXs.S S %.}.|.g.W S h.R.J.2 2 r :.oXoXoXoXoXoXoXoXoXoXoXoXoXoXoXoXoXoXoX",
"oXoXoXoXoXoXoXoXoXoXoXoXoXoX;Xh.S W W W Q S S M >X7X^.h.2 p 2 :.oXoXoXoXoXoXoXoXoXoXoXoXoXoXoXoXoXoX",
"oXoXoXoXoXoXoXoXoXoXoXoXoXoX'.H.W V S S S S S U.T.) @ U.3 V p w XXoXoXoXoXoXoXoXoXoXoXoXoXoXoXoXoXoX",
"oXoXoXoXoXoXoXoXoXoXoXoXc.s./ ! ~ ! Q C S p 2 Y.i.I Y C.3 S S 3 x.oXoXoXoXoXoXoXoXoXoXoXoXoXoXoXoXoX",
"oXoXoXoXoXoXoXoXoXoXoX}.i S S S S S A W C S p *.P     k M S S p @.oXoXoXoXoXoXoXoXoXoXoXoXoXoXoXoXoX",
"oXoXoXoXoXoXoXoXoXoXoX>., S S S S S < 4 V S S m *.8 m V S S S p o.oXoXoXoXoXoXoXoXoXoXoXoXoXoXoXoXoX",
"oXoXoXoXoXoXoXoXoXoXoX>.4 C p M S S < 1 S S S S S C V C S S S p +.oXoXoXoXoXoXoXoXoXoXoXoXoXoXoXoXoX",
"oXoXoXoXoXoXoXoXoXoXoX|.i T .X+.p V 2 M S S S A V 3 3 A S S V 2 :.oXoXoXoXoXoXoXoXoXoXoXoXoXoXoXoXoX",
"oXoXoXoXoXoXoXoXoXoXoXoX X0XoXoXN.i 2 3 3 3 2 1 + . 6 S S A p 2 }.oXoXoXoXoXoXoXoXoXoXoXoXoXoXoXoXoX",
"oXoXoXoXoXoXoXoXoXoXoXoXoX4XoXoX5X+Xv., O O X - U 7 V S V 5 2 +.oXoXoXoXoXoXoXoXoXoXoXoXoXoXoXoXoXoX",
"oXoXoXoXoXoXoXoXoXoXoXoXoXOXOXoX=X@X-.* X # _ [ ' R V p 2 2 d oXoXoXoXoXoXoXoXoXoXoXoXoXoXoXoXoXoXoX",
"oXoXoXoXoXoXoXoXoXoXoXoXoXoXXX|.:.} # o = ] 2X' B w 2 2 1 1 -.oXoXoXoXoXoXoXoXoXoXoXoXoXoXoXoXoXoXoX",
"oXoXoXoXoXoXoXoXoXoX|.X.9 & o o o o $ _ 2X2X` 5 2 1 1 1 2 2 v.oXoXoXoXoXoXoXoXoXoXoXoXoXoXoXoXoXoXoX",
"oXoXoXoXoXoXoXoXoX>.% o o O < t i V ).3X).E 2 Z w.k 2 3 2 f oXoXoXoXoXoXoXoXoXoXoXoXoXoXoXoXoXoXoXoX",
"oXoXoXoXoXoXoXoXXX& o o , ,.oXoX:.s M E m  .b.W.w.2 2 3 h b.oXoXoXoXoXoXoXoXoXoXoXoXoXoXoXoXoXoXoXoX",
"oXoXoXoXoXoXoXoX-.o , % XXoXoXoXoX}.@. .@.OXI.E.K V j v =.oXoXoXoXoXoXoXoXoXXX;.{ u }.oXoXoXoXoXoXoX",
"oXoXoXoXoXoXoXoX} 9 >.9 oXoXoXoXoXoXoXoXoXP.W.V.8.e.v v #XoXoXoXoXoXoXoXoX}.O.q : y >.oXoXoXoXoXoXoX",
"oXoXoXoXoXoXoXoXo.XXoX:.oXoXoXoXoXoXoXoX&X~.S.S H 5.v <.oXoXoXoXoXoXoXXX;.z : : > { XXoXoXoXoXoXoXoX",
"oXoXoXoXoXoXoXoXoXoXoXoXoXoXoXoXoXoXoX&X,X{.K S V c =.OXoXoXoXoXoXoXXXO.y ; > y u ,.oXoXoXoXoXoXoXoX",
"oXoXoXoXoXoXoXoXoXoXoXoXoXoXoXoXoXoX*X!./.^ S S w 2 #XoXoXoXoXoXoXoX}.0 ; y y t >.oXoXoXoXoXoXoXoXoX",
"oXoXoXoXoXoXoXoXoXoXoXoXoXoXoXoXOX-X7X^.*.S S p 2 x.oXoXoXoXoXoXoXx.A m q q | }.oXoXoXoXoXoXoXoXoXoX",
"oXoXoXoXoXoXoXoXoXoXoXoXoXoXoX$XR.:X:Xd.S S p e @.oXoXoXoXoXoXoXc.A m w ,.|.oXoXoXoXoXoXoXoXoXoXoXoX",
"oXoXoXoXoXoXoXoXoXoXoXoXoXoX&X<X6XE.V.8.8.L v <.oXoXoXoXoXoXoXv.&.Z w v.oXoXoXoXoXoXoXoXoXoXoXoXoXoX",
"oXoXoXoXoXoXoXoXoXoXoXoXoXn.,X1X,XA.S 9.4.v =.oXoXoXoXoXoXoXoX%.e.c -.oXoXoXoXoXoXoXoXoXoXoXoXoXoXoX",
"oXoXoXoXoXoXoXoXoXoXoXoX*X{.~.[.L.S S b v $.%XoXoXoXoXoXoXoXz.S N r XXoXoXoXoXoXoXoXoXoXoXoXoXoXoXoX",
"oXoXoXoXoXoXoXoXoXoXoX&X1X8X/.K.K S m 3 2.#XoXoXoXoXoXoXoXoX .S p -.oXoXoXoXoXoXoXoXoXoXoXoXoXoXoXoX",
"oXoXoXoXoXoXoXoXoXoX$X,X1X1X:XB.S V 2 3 +.1.n.P.p.%.a.#.c.|.%.6.j x.oXoXoXoXoXoXoXoXoXoXoXoXoXoXoXoX",
"oXoXoXoXoXoXoXoXoXoXP.[.:X[.D.S S p 3 h 8.y.S.D.F.D.j.( ! C F 9.4.O.oXoXoXoXoXoXoXoXoXoXoXoXoXoXoXoX",
"oXoXoXoXoXoXoXoXoX$X:X~.E.E.K S N j v H 8.t.t.t.9.J S ! k.j.W p l 2 }.oXoXoXoXoXoXoXoXoXoXoXoXoXoXoX",
"oXoXoXoXoXoXoXoXoX-X9X6X[.A.S 8.2.v v J S 9.t.9.S S S S 8.r.w.J 2 p f XXoXoXoXoXoXoXoXoXoXoXoXoXoXoX",
"oXoXoXoXoXoXoXoXoX].1X1X[.K G e.4.v L A S J 5.V M V S 8.e.t.t.e.b l b +.oXoXoXoXoXoXoXoXoXoXoXoXoXoX",
"oXoXoXoXoXoXoXoX X/.,X:XE.S S G 8.c c 1 3 3 3 3 2 2 l r.r.r.t.r.5.j e.b }.oXoXoXoXoXoXoXoXoXoXoXoXoX",
"oXoXoXoXoXoXoXoX#XE.E.K.Z.S S S S M 3 1 e 3 3 2 k p J Z S S J S M k J p ..oXoXoXoXoXoXoXoXoXoXoXoXoX",
"oXoXoXoXoXoXoX#.A W.W.W.A.S S S S S C m 3.L 4.5.8.S S S S S S S p 2 C M w |.oXoXoXoXoXoXoXoXoXoXoXoX",
"oXoXoXoXoXXX .S S D.Q.Q.A.S S S S S S S q.t.t.t.H S S S S S S p 2 1 S V 2 v.oXoXoXoXoXoXoXoXoXoXoXoX",
"oXoXoXoXoXa.S S S *.Q.Q.F.S S S S S S S 8.t.t.9.S S S S S M p 2 3 l 9.C 2 -.oXoXoXoXoXoXoXoXoXoXoXoX",
"oXoXoXoX|.A S S ( G y.E.K.e p V S S S S S 9.q.Z S S S m p 3 3 3 2 9.y.Z 2 @.oXoXoXoXoXoXoXoXoXoXoXoX",
"oXoXoXoXv.S S S ( B.t.u.W.0.3 3 3 p p m M V V m p p 3 3 3 3 3 2 p C.t.b 2 >.oXoXoXoXoXoXoXoXoXoXoXoX",
"oXoXoXoX}.A S S W H.y.t.t.K.M 2 3 3 3 3 3 3 3 3 3 3 3 3 3 2 k V ( j.S e w }.oXoXoXoXoXoXoXoXoXoXoXoX",
"oXoXoXoXXXi C S S d.`.F.t.e.G 2 2 2 3 3 3 3 2 3 3 2 2 3 x 9.t.G.k.S p 2 g oXoXoXoXoXoXoXoXoXoXoXoXoX",
"oXoXoXoXoX@.p C S G S.`.T.^ S S C N n x x l b 4 p M C S t.L.`.l.S p 3 w }.oXoXoXoXoXoXoXoXoXoXoXoXoX",
"oXoXoXoXoX|.a 3 V S e.8.j.M.m.( ! W 9.t.t.t.7.W ! ! j.m.(.H.t.C p 2 w x.oXoXoXoXoXoXoXoXoXoXoXoXoXoX",
"oXoXoXoXoXoX}.f 3 p V S S S ( m.M.M.(.`.`.`._.M.M.m.k./ W C M 3 3 i x.oXoXoXoXoXoXoXoXoXoXoXoXoXoXoX",
"oXoXoXoXoXoXoXXX..i 2 2 p m M V S S W K t.t.G S S S C M p 2 2 2 } |.oXoXoXoXoXoXoXoXoXoXoXoXoXoXoXoX",
"oXoXoXoXoXoXoXoXoX}.+.a 2 2 2 2 2 3 p p p l p p p 3 2 2 2 a ..}.oXoXoXoXoXoXoXoXoXoXoXoXoXoXoXoXoXoX",
"oXoXoXoXoXoXoXoXoXoXoXoXv.+. .a 2 3 3 3 3 3 3 3 2 i g +.x.oXoXoXoXoXoXoXoXoXoXoXoXoXoXoXoXoXoXoXoXoX",
"oXoXoXoXoXoXoXoXoXoXoXoXoXoXoXoX|.v.:.-.-.-.:.v.|.oXoXoXoXoXoXoXoXoXoXoXoXoXoXoXoXoXoXoXoXoXoXoXoXoX"
};
