/* XPM */
static char *a9c9c7c648cd4839efcdc71a66e2a5a8QFQzplpVpQJNV6vT[] = {
/* columns rows colors chars-per-pixel */
"50 50 188 2 ",
"   c #571C05",
".  c #581E07",
"X  c #591F08",
"o  c #5C240C",
"O  c #5F2811",
"+  c #7A2D0F",
"@  c #622A12",
"#  c #7B2E10",
"$  c #683316",
"%  c #6A351C",
"&  c #7D3211",
"*  c #7C3A13",
"=  c #7B3819",
"-  c #723E24",
";  c #7E3F20",
":  c #3F711F",
">  c #3A7427",
",  c #34782D",
"<  c #337E35",
"1  c #4B591A",
"2  c #595F16",
"3  c #5B5F19",
"4  c #7B4A17",
"5  c #7C451B",
"6  c #645719",
"7  c #745C19",
"8  c #566619",
"9  c #4F781F",
"0  c #5D761F",
"q  c #696B1C",
"w  c #79462B",
"e  c #7C4E33",
"r  c #416724",
"t  c #477A23",
"y  c #457D26",
"u  c #587D21",
"i  c #617822",
"p  c #843512",
"a  c #873A15",
"s  c #8C3B15",
"d  c #823B1D",
"f  c #883D18",
"g  c #8B441B",
"h  c #934217",
"j  c #954419",
"k  c #994619",
"l  c #9E4A1B",
"z  c #835619",
"x  c #89551A",
"c  c #85591A",
"v  c #99511B",
"b  c #A44F1C",
"n  c #A6501D",
"m  c #864324",
"M  c #804A21",
"N  c #8D4925",
"B  c #964B23",
"V  c #855A2B",
"C  c #9D5222",
"Z  c #9B5826",
"A  c #9E5B26",
"S  c #844F32",
"D  c #845237",
"F  c #8D5333",
"G  c #8F5A3A",
"H  c #915734",
"J  c #A15322",
"K  c #AA5624",
"L  c #846629",
"P  c #9C662C",
"I  c #857329",
"U  c #99712E",
"Y  c #896531",
"T  c #9C6830",
"R  c #8C7937",
"E  c #9C7232",
"W  c #997B34",
"Q  c #A06025",
"!  c #885D42",
"~  c #8D6246",
"^  c #9A7658",
"/  c #A87249",
"(  c #B57445",
")  c #318137",
"_  c #318239",
"`  c #4D8226",
"'  c #568323",
"]  c #598926",
"[  c #5E8E28",
"{  c #5E9129",
"}  c #60942B",
"|  c #649A2E",
" . c #6F9638",
".. c #7DB142",
"X. c #888230",
"o. c #998635",
"O. c #998E35",
"+. c #988B3F",
"@. c #9C8A3D",
"#. c #8B9736",
"$. c #9B933C",
"%. c #999B3D",
"&. c #96A23A",
"*. c #90B33E",
"=. c #9A9B44",
"-. c #99AB45",
";. c #81B246",
":. c #95B544",
">. c #9AB645",
",. c #97BB44",
"<. c #99BE46",
"1. c #97B449",
"2. c #9BB44B",
"3. c #9ABD4A",
"4. c #A2B857",
"5. c #B4BF5C",
"6. c #A98B6A",
"7. c #AA9E6A",
"8. c #B49373",
"9. c #BE9975",
"0. c #ABA06C",
"q. c #ACBE64",
"w. c #AEB56A",
"e. c #BBB962",
"r. c #CEA56B",
"t. c #CBAD6A",
"y. c #D0A76C",
"u. c #D0A96D",
"i. c #C6B267",
"p. c #C7B46A",
"a. c #C0A378",
"s. c #D3AB73",
"d. c #CEB570",
"f. c #DBB177",
"g. c #D6B27B",
"h. c #DBB47C",
"j. c #E0B77C",
"k. c #E1B97E",
"l. c #96C547",
"z. c #97CA44",
"x. c #98CD46",
"c. c #9BC54B",
"v. c #9CCC4C",
"b. c #97D644",
"n. c #98D744",
"m. c #9BD34A",
"M. c #A0D34D",
"N. c #AEC657",
"B. c #A4CC51",
"V. c #A7C55D",
"C. c #ADCD59",
"Z. c #B1C25C",
"A. c #A4D452",
"S. c #A9D558",
"D. c #AFC069",
"F. c #B8CF6B",
"G. c #B5D369",
"H. c #C2C972",
"J. c #C2D97D",
"K. c #BFA382",
"L. c #C6A984",
"P. c #C5B48A",
"I. c #D5B581",
"U. c #D9B681",
"Y. c #DCB984",
"T. c #D1B488",
"R. c #D6BB8B",
"E. c #DBBC8A",
"W. c #E3BC83",
"Q. c #CBCE84",
"!. c #D7C28D",
"~. c #DDC18F",
"^. c #C9D484",
"/. c #CDD98C",
"(. c #DDC395",
"). c #D9C598",
"_. c #CFD391",
"`. c #D6D598",
"'. c #E7C287",
"]. c #E8C288",
"[. c #E9C289",
"{. c #E0CB9F",
"}. c #DEC7A3",
"|. c #E2CDA3",
" X c #E4D7AE",
".X c #E7DDB5",
"XX c #EADFBA",
"oX c #ECE1BD",
/* pixels */
"n.n.n.n.n.n.n.n.n.n.n.n.n.n.n.n.n.n.n.n.n.n.n.n.n.n.n.n.n.n.n.n.n.n.n.n.n.n.n.n.n.n.n.n.n.n.n.n.n.n.",
"n.n.n.n.n.n.n.n.n.n.n.n.n.n.n.n.n.n.n.n.n.n.n.n.n.n.n.n.n.n.n.n.n.n.n.n.n.n.n.n.n.n.n.n.n.n.n.n.n.n.",
"n.n.n.n.n.n.n.n.n.n.n.n.n.n.n.n.n.n.n.n.n.n.n.n.n.n.n.n.n.n.n.n.n.n.n.n.n.n.n.n.n.n.n.n.n.n.n.n.n.n.",
"n.n.n.n.n.n.n.n.n.n.n.n.n.n.n.n.n.n.n.n.n.n.n.n.n.n.n.n.n.n.n.n.n.n.n.n.n.n.n.n.n.n.n.n.n.n.n.n.n.n.",
"n.n.n.n.n.n.n.n.n.n.n.n.n.n.n.n.n.n.n.n.n.n.n.n.n.n.n.n.n.n.n.n.n.n.m.M.C.F.H.Q._.J.m.n.n.n.n.n.n.n.",
"n.n.n.n.n.n.n.n.n.n.n.n.n.n.n.n.n.n.n.n.n.n.n.n.n.n.n.n.n.n.n.A.Z.i.d.f.h.W.W.h.|..XA.n.n.n.n.n.n.n.",
"n.n.n.n.n.n.n.n.n.n.n.n.n.n.n.n.n.n.n.n.n.n.n.n.n.n.n.n.B.5.i.s.g.E.(.{.g.].'.h. XG.n.n.n.n.n.n.n.n.",
"n.n.n.n.n.n.n.n.n.n.n.n.n.n.n.n.n.n.n.n.n.n.n.n.n.B.e.t.u.s.s.g.U.XXoX(.W.W.Y.`.A.n.n.n.n.n.n.n.n.n.",
"n.n.n.n.n.n.n.n.n.n.n.n.n.n.n.n.n.n.n.n.n.n.M.5.i.r.r.s.h.W.'.h.(.{.U.W.h.).J.m.n.n.n.n.n.n.n.n.n.n.",
"n.n.n.n.n.n.n.n.n.n.n.n.n.n.n.n.n.n.n.n.B.e.y.r.r.f.W.].].W.I.(.h.k.h.E./.A.n.n.n.n.n.n.n.n.n.n.n.n.",
"n.n.n.n.n.n.n.n.n.n.n.n.n.n.n.n.n.n.N.i.u.r.s.W.].].W.h.E.I.Y.j.h.(.^.S.n.n.n.n.n.n.n.n.n.n.n.n.n.n.",
"n.n.n.n.n.n.n.n.n.n.n.n.n.n.n.m.N.t.s.s.g.W.].W.W.U.I.E.h.k.Y.!./.A.n.n.n.n.n.n.n.n.n.n.n.n.n.n.n.n.",
"n.n.n.n.n.n.n.n.n.n.n.n.n.n.C.d.s.).U.W.W.h.U.E.I.h.W.f.E.`.F.M.n.n.b.n.n.n.n.n.n.n.n.n.n.n.n.n.n.n.",
"n.n.n.n.n.n.n.n.n.n.n.n.S.p.f.E..XXX(.~.R.E.Y.h.h.E.R.).P.w.q.D.q.V.V.B.v.b.n.n.n.n.n.n.n.n.n.n.n.n.",
"n.n.n.n.n.n.n.n.n.n.n.F.g.].g. X|.(.U.f.k.W.U.R.L.~ @ o o o o o % w e ~ ^ 6.7.w.V.v.n.n.n.n.n.n.n.n.",
"n.n.n.n.n.n.n.n.n.v._.h.].].W.W.k.h.f.~.(.8.~ % . . X X X X X X X X X X .   X O - ! 0.4.n.n.n.n.n.n.",
"n.n.n.n.n.n.n.n.x.a.oXE.Y.Y.E.E.T.L.6.D o   X X X X X X X X X X X X X X X X X . X o   P.2.n.n.n.n.n.",
"n.n.n.n.n.n.n.n.l./ }.K.8.^ ! - @ X . X X X X X X X X X X X X X X X X X X X X . X . % 9.+.n.n.n.n.n.",
"n.n.n.n.n.n.n.n.<.b j F D e $ o     . X X X X X X X X X X X X X X X X X .     @ w G H + R n.n.n.n.n.",
"n.n.n.n.n.n.n.n.>.b b j p & N H G S w - % @ @ @ @ o o o o o o o @ $ % - w G / ( K l # + Y n.n.n.n.n.",
"n.n.n.n.n.n.n.n.-.b b b b l h p # + # & d d m m m m m m m m m m N B B l b b b b b b # + V n.n.n.n.n.",
"n.n.n.n.n.n.n.n.&.n n b b b b b b l j h s s s s s s s h j k b b n b b b b b b b b b # # M n.n.n.n.n.",
"n.n.n.n.n.n.n.b.%.n n n n n b b b b b b b b b l n b b b b b b b b b n b b b b b b b # # ; m.n.n.n.n.",
"n.n.n.n.n.n.n.n.O.n n n n n b b b b n b b n b l b b b n n n b b b b n n b h b b b b # + = m.n.n.n.n.",
"n.n.n.n.n.n.n.n.o.b n n n b b n n n n n n n b k b b n n n n n n n n n n n s l b b b # + & l.n.n.n.n.",
"n.n.n.n.n.n.n.n.W b n n n n b b b n n n n n b k b b b n b n n n n n n b n p l b b b # + & ,.n.n.n.n.",
"n.n.n.n.n.n.n.n.U b n n n n b b b n n n n n b k n b b b b n n n n n n b b & l b b b & + + >.n.n.n.n.",
"n.n.n.n.n.n.n.n.P n b b b b b b b n n n n n b l n b b l b n n n n n n b b # k b b b p + + -.n.n.n.n.",
"n.n.n.n.n.n.n.n.Z b b b b b b b b n n n n n b l n b b s n n n n n n n n b + j b b b p + # #.n.n.n.n.",
"n.n.n.n.n.n.n.n.C b b b b b b b b n b n n n b b b b l a b n n n n n n n b + h b b b s + # #.b.n.n.n.",
"n.n.n.n.n.n.n.z.l b n s b b b b n n b n n n b b b b k p b n n n n n n b b + h b b b h # # X.b.n.n.n.",
"n.n.n.n.n.n.n.,.b b k a b b l b n n b b b n b b b b j # b b b n n n n b b & a b n n l + # I n.n.n.n.",
"n.n.n.n.n.n.b.O.n b p h b b b b b b k l b n n n n n j + l b n n b n n b n p p b b b n p + L n.n.n.n.",
"n.n.n.n.n.n.x.Q b j # l b n b b b b s l b n n n n b k + h b b n b b b b n a & b b b n h # 5 n.n.n.n.",
"n.n.n.n.n.n.o.b b & p b b b b b b b p l b n n n n b b # a b n 6 x n b n c 0 ' 2 v b b b & + :.n.n.n.",
"n.n.n.n.b.o.n b p + k b n n n n b k # l b n n n n b b & & b n z ] 7 b x [ | 2 h b b b b h + L n.n.n.",
"n.n.c.%.A b l p # a b b n n n b b p # l b n n n n b n s # k n b q [ x 0 } u * p b b b b b a & *.n.n.",
"c.W J n b s & + p b b b n n b b k # + k b n n n n b b k + * 7 3 3 } 8 ] > 8 z 8 i q x n b b p 5 l.n.",
"Y f a p = M Y H b b b n b b b l & # + h b b b n b b b b p $ 8 9 , y ' y , 9 } | u 7 z x b b b s 5 1.",
"n.c.1.3.m.n.=.b b b n b b b l & + + = N n b b C n b b x 6 1 1 ' y _ ` , y { 9 0 * F T J b n b b l g ",
"n.n.b.n.n.<.C n n b b b b s # # # V >.=.b b A 2.P b n v v 4 r < : _ > < t > ] c b f 1.<.-.$.@.@.%.>.",
"n.n.n.n.n.l.@.E P A C g d M V R 1.n.n.m.T b A m.m.=.P b b b * > ) _ _ _ , ` i l b A <.n.n.n.n.n.n.n.",
"n.n.n.n.n.n.n.n.b.x.z.z.x.x.n.n.n.n.n.n.x.@.@.n.n.n.b.1.W C l 6 _ _ _ _ ) ]  .<.c.x.n.n.n.n.n.n.n.n.",
"n.n.n.n.n.n.n.n.n.n.n.n.n.n.n.n.n.n.n.n.n.n.n.n.n.n.n.n.n.m.,.c.;.......;.;.l.n.n.n.n.n.n.n.n.n.n.n.",
"n.n.n.n.n.n.n.n.n.n.n.n.n.n.n.n.n.n.n.n.n.n.n.n.n.n.n.n.n.n.n.n.n.n.n.n.n.n.n.n.n.n.n.n.n.n.n.n.n.n.",
"n.n.n.n.n.n.n.n.n.n.n.n.n.n.n.n.n.n.n.n.n.n.n.n.n.n.n.n.n.n.n.n.n.n.n.n.n.n.n.n.n.n.n.n.n.n.n.n.n.n.",
"n.n.n.n.n.n.n.n.n.n.n.n.n.n.n.n.n.n.n.n.n.n.n.n.n.n.n.n.n.n.n.n.n.n.n.n.n.n.n.n.n.n.n.n.n.n.n.n.n.n.",
"n.n.n.n.n.n.n.n.n.n.n.n.n.n.n.n.n.n.n.n.n.n.n.n.n.n.n.n.n.n.n.n.n.n.n.n.n.n.n.n.n.n.n.n.n.n.n.n.n.n.",
"n.n.n.n.n.n.n.n.n.n.n.n.n.n.n.n.n.n.n.n.n.n.n.n.n.n.n.n.n.n.n.n.n.n.n.n.n.n.n.n.n.n.n.n.n.n.n.n.n.n.",
"n.n.n.n.n.n.n.n.n.n.n.n.n.n.n.n.n.n.n.n.n.n.n.n.n.n.n.n.n.n.n.n.n.n.n.n.n.n.n.n.n.n.n.n.n.n.n.n.n.n."
};
