/* XPM */
static char *a1e5625ae43c4f288df8d5b018b04fe4XnxxfijHy1jHmy73[] = {
/* columns rows colors chars-per-pixel */
"50 50 180 2 ",
"   c #7A2D0F",
".  c #7B2E10",
"X  c #6B3A10",
"o  c #7D3212",
"O  c #793B12",
"+  c #7D391B",
"@  c #3F6A26",
"#  c #397224",
"$  c #3A732C",
"%  c #35782C",
"&  c #3F7928",
"*  c #347D34",
"=  c #4C5819",
"-  c #5D5917",
";  c #7E431D",
":  c #794B1A",
">  c #615E17",
",  c #6C5D18",
"<  c #795718",
"1  c #775A1A",
"2  c #506117",
"3  c #5A6319",
"4  c #57681A",
"5  c #4F731D",
"6  c #48781F",
"7  c #5D721D",
"8  c #6B6B1D",
"9  c #60751E",
"0  c #7E4022",
"q  c #457A25",
"w  c #467C26",
"e  c #5A7E22",
"r  c #647723",
"t  c #833512",
"y  c #863913",
"u  c #8B3B14",
"i  c #8A3B17",
"p  c #843B1A",
"a  c #913F16",
"s  c #8E421A",
"d  c #814F18",
"f  c #934216",
"g  c #9C4917",
"h  c #954318",
"j  c #994619",
"k  c #9E4A1B",
"l  c #84561A",
"z  c #8B551A",
"x  c #825A1A",
"c  c #93521A",
"v  c #99521B",
"b  c #A44F1C",
"n  c #A6501D",
"m  c #814521",
"M  c #894120",
"N  c #814B23",
"B  c #8C4922",
"V  c #914721",
"C  c #86582D",
"Z  c #9D5223",
"A  c #9E5925",
"S  c #9E5E2B",
"D  c #8B5732",
"F  c #925633",
"G  c #985937",
"H  c #A15624",
"J  c #A15B2A",
"K  c #836728",
"L  c #88602F",
"P  c #9D652C",
"I  c #85742A",
"U  c #9A712F",
"Y  c #8A6C36",
"T  c #9D6230",
"R  c #9D6831",
"E  c #8F7B3D",
"W  c #9C7A36",
"Q  c #A56943",
"!  c #A97551",
"~  c #AC7A55",
"^  c #2F8339",
"/  c #318036",
"(  c #318139",
")  c #4B8027",
"_  c #558324",
"`  c #598925",
"'  c #5B8A26",
"]  c #5F912A",
"[  c #62952C",
"{  c #649A2E",
"}  c #71933B",
"|  c #79AB43",
" . c #7DAC49",
".. c #888331",
"X. c #978B36",
"o. c #9A8F37",
"O. c #9D823B",
"+. c #9C8D3E",
"@. c #8C9838",
"#. c #999037",
"$. c #989C3B",
"%. c #97A33C",
"&. c #9F8444",
"*. c #9A9346",
"=. c #9D9947",
"-. c #B0805B",
";. c #AB9559",
":. c #A79958",
">. c #81AC49",
",. c #9BAD46",
"<. c #9EA648",
"1. c #97AE48",
"2. c #9CAD4B",
"3. c #92B740",
"4. c #97B744",
"5. c #99BC44",
"6. c #9CB54B",
"7. c #9BBB4B",
"8. c #9EAA52",
"9. c #9FB453",
"0. c #9EBD52",
"q. c #A2A54F",
"w. c #A4A353",
"e. c #A4A758",
"r. c #A1B755",
"t. c #BA8F6A",
"y. c #B59361",
"u. c #BE9667",
"i. c #AEA865",
"p. c #B8AB72",
"a. c #BFA179",
"s. c #C49D68",
"d. c #C09872",
"f. c #CEA46B",
"g. c #D0A66C",
"h. c #D0A86C",
"j. c #C6A57E",
"k. c #C8A878",
"l. c #D3AD78",
"z. c #D7B077",
"x. c #DCB277",
"c. c #D5B17B",
"v. c #DCB47A",
"b. c #E0B87E",
"n. c #96C544",
"m. c #9AC247",
"M. c #98CD46",
"N. c #9BC54B",
"B. c #9BCC4B",
"V. c #97D643",
"C. c #98D744",
"Z. c #9BD44B",
"A. c #9EC454",
"S. c #96C853",
"D. c #9ECC51",
"F. c #9FD451",
"G. c #A0C853",
"H. c #CBAA85",
"J. c #DDB983",
"K. c #D2B58E",
"L. c #D7BB8A",
"P. c #DABC8B",
"I. c #D6BC93",
"U. c #DABE96",
"Y. c #E4BD84",
"T. c #E8BF87",
"R. c #DDC392",
"E. c #DDC395",
"W. c #DBC299",
"Q. c #DEC599",
"!. c #E8C087",
"~. c #E8C188",
"^. c #E9C48A",
"/. c #D9C5A0",
"(. c #E1CFA1",
"). c #E5D1A9",
"_. c #E6D7B0",
"`. c #E7D8B3",
"'. c #E8DAB1",
"]. c #EBE1BC",
/* pixels */
"C.C.C.C.C.C.C.C.C.C.C.C.C.C.C.C.C.C.C.C.C.C.C.C.C.C.C.C.C.C.C.C.C.C.C.C.C.C.C.C.C.C.C.C.C.C.C.C.C.C.",
"C.C.C.C.C.C.C.C.C.C.C.C.C.C.C.C.C.C.C.C.C.C.C.C.C.C.C.C.C.C.C.C.C.C.C.C.C.C.C.C.C.C.C.C.C.C.C.C.C.C.",
"C.C.C.C.C.C.C.C.C.C.C.C.C.C.C.C.C.C.C.C.C.C.C.C.C.C.C.C.C.C.C.C.C.C.C.C.C.C.C.C.C.C.C.C.C.C.C.C.C.C.",
"C.C.C.C.C.C.C.C.C.C.C.C.C.C.C.C.C.C.C.C.C.C.C.C.C.C.C.C.C.C.C.C.C.C.C.C.C.C.C.C.C.C.C.C.C.C.C.C.C.C.",
"C.C.C.C.C.C.C.C.C.C.C.C.C.C.C.C.C.C.C.C.C.C.C.C.C.C.C.C.C.C.C.C.C.C.C.C.C.C.C.C.C.C.C.C.C.C.C.C.C.C.",
"C.C.C.C.C.C.C.C.C.C.C.C.C.C.C.C.C.C.C.C.C.C.C.C.C.C.C.C.C.C.C.C.C.C.C.C.C.C.C.C.C.C.C.C.C.C.C.C.C.C.",
"C.C.C.C.C.C.C.C.C.C.C.C.C.C.C.C.C.C.C.C.C.C.C.C.C.C.C.C.C.C.C.C.C.C.C.C.C.C.C.C.C.C.C.C.C.C.C.C.C.C.",
"C.C.C.C.C.C.C.C.C.C.C.C.C.C.C.C.C.C.C.C.C.C.C.C.C.C.C.C.C.C.C.C.C.C.C.C.C.C.C.C.C.C.C.C.C.C.C.C.C.C.",
"C.C.C.C.C.C.C.C.C.C.C.C.C.C.C.C.C.C.C.C.C.C.C.C.C.C.C.C.C.C.C.C.C.C.C.C.C.C.C.C.C.C.C.C.C.C.C.C.C.C.",
"C.C.C.C.C.C.C.C.C.C.C.C.C.C.C.C.C.C.C.C.C.C.C.C.C.C.C.C.C.C.C.C.C.C.C.C.C.C.C.C.C.C.C.C.C.C.C.C.C.C.",
"C.C.C.C.C.C.C.C.C.C.C.C.C.C.C.C.C.C.C.C.C.C.C.C.C.C.C.C.C.C.C.C.C.C.C.C.C.C.C.C.C.C.C.C.C.C.C.C.C.C.",
"C.C.C.C.C.C.C.C.C.C.C.C.C.C.C.C.C.C.C.C.C.C.C.C.C.C.C.C.C.C.C.C.C.C.C.C.C.C.C.C.C.C.C.C.C.C.C.C.C.C.",
"C.C.C.C.C.C.C.C.C.C.C.C.C.C.C.C.C.C.C.C.C.C.C.C.C.C.C.C.C.C.V.C.C.C.C.C.C.C.C.C.C.C.C.C.C.C.C.C.C.C.",
"C.C.C.C.C.C.C.C.C.C.C.C.C.C.C.Z.B.N.7.6.6.2.<.q.w.w.w.w.w.q.<.2.2.6.7.m.B.Z.C.C.C.C.C.C.C.C.C.C.C.C.",
"C.C.C.C.C.C.C.C.C.C.C.V.7.e.:.y.u.s.f.f.f.g.h.g.g.f.g.f.f.g.g.g.f.f.f.s.u.y.;.w.9.B.C.C.C.C.C.C.C.C.",
"C.C.C.C.C.C.C.C.C.D.i.j.k.v.v.z.P.E.E.c.c.v.v.v.v.v.v.v.v.v.v.v.c.c.E.E.P.v.v.v.l.j.p.9.C.C.C.C.C.C.",
"C.C.C.C.C.C.C.C.B.a.].z.^.~.v.).].].Q.J.Y.Y.Y.Y.!.~.~.~.~.T.Y.Y.Y.Y.Q.].].'.c.~.~.v._./.r.C.C.C.C.C.",
"C.C.C.C.C.C.C.C.m.~ `.(.v.b.~.Y.J.J.L.L.L.L.L.P.L.L.L.L.L.P.P.L.L.P.L.P.J.Y.~.Y.v.R.].j.*.C.C.C.C.C.",
"C.C.C.C.C.C.C.C.5.b V ~ H.I.P.P.J.J.J.v.v.v.x.v.x.x.x.x.v.v.v.v.v.v.b.J.J.P.P.I.K.u.F   E C.C.C.C.C.",
"C.C.C.C.C.C.C.C.4.b b h t o M G ! t.j.K.I.W.W.E.E.E.E.E.E.E.Q.W.U.K.H.d.-.Q J H b k     Y C.C.C.C.C.",
"C.C.C.C.C.C.C.C.,.n b b b g u y .         o t p p p p p p p t o t y u f k b n b b b .   C C.C.C.C.C.",
"C.C.C.C.C.C.C.C.%.n n b b b b n b k h u u y y y y y u u f j k b n b b b b b b b b b . . N C.C.C.C.C.",
"C.C.C.C.C.C.C.V.$.n n n n n b b b b b b b b b k n b b n b b b b b b n b b b b b b b   . 0 F.C.C.C.C.",
"C.C.C.C.C.C.C.C.#.n n n n n b b b b n b b b b k b b b n b n b b b b n n b f b b b b .   + F.C.C.C.C.",
"C.C.C.C.C.C.C.C.O.b n n n b b n n n n n n n b j b b n n n n n n n n n n n u k b b b .   o B.C.C.C.C.",
"C.C.C.C.C.C.C.C.W b n n n n b b b n n n n n b j b b b n b n n n n n n b n t k b b b .   . 7.C.C.C.C.",
"C.C.C.C.C.C.C.C.U b n n n n b b b n n n n n b g n b b b b n n n n n n b b o k b b b o     6.C.C.C.C.",
"C.C.C.C.C.C.C.C.P n b b b b b b b n n n n n b k n b b k b n n n n n n b b . j b b b t     1.C.C.C.C.",
"C.C.C.C.C.C.C.C.A b b b b b b b b n n n n n b k n b b u n n n n n n n n b   h b b b y     @.C.C.C.C.",
"C.C.C.C.C.C.C.C.Z b b b b b b b b n b n n n b b b b k y b n n n n n n n b   f b b b u   . @.V.C.C.C.",
"C.C.C.C.C.C.C.M.k b b f b b b b n b b b b n b b b b j y b n n n n n n b b   f b n b f . . ..V.C.C.C.",
"C.C.C.C.C.C.C.5.b b k y b b k b n n b b b n b b b b h . b b b n n n n b b o y b n n k   . I C.C.C.C.",
"C.C.C.C.C.C.V.o.n b y f b b b b b b j k b n n n n n h   k b n n b n n b b t y b b b n t   K C.C.C.C.",
"C.C.C.C.C.C.M.P b j . k b n b b b b u k b n n n n b j   f b b n b b b b b y o b b b n h . ; C.C.C.C.",
"C.C.C.C.C.C.X.b b o y b b b b b b b t k b n n n n b b . u b n , z b b n z 7 e - v b b b o . 3.C.C.C.",
"C.C.C.C.V.o.n b y   h b n n n n b j . k b n n n n b b o o b b l _ 1 b z ' { 3 f b b b b f   K C.C.C.",
"C.C.B.<.S b b t . y b b n n n b b y . k b n n n n b n u . j n b 8 ' z 9 [ _ O t b b b b b y o 3.C.C.",
"G.O.J b b a o   t b b b n n b b j .   j b n n n n b b j   y < - > [ 4 ' & 2 d 3 r 8 z n b b y : n.V.",
"D u u y o m L F b b b n b b b k t .   f b b n n b b b b t X 2 5 % w _ ) % 5 ] { e , < l b b b u N 7.",
"Z.0.1.6.B.V.q.b b b n b b b k t     o B n b b k n b b z - = = _ w ( _ % w ] 6 e O D T b b n n n k B ",
"C.V.C.C.C.A.Z n b b b n b u . . . C 6.=.b b J 8.T b n c v : @ * 6 ( # * q # ' x b p 0.7.=.+.O.O.+.2.",
"C.C.C.C.C.N.O.R S A Z s + ; N Y 2.Z.C.Z.T b J Z.Z.*.S b b b O $ / ( ( ( % ) r k b A 7.C.C.C.C.C.C.C.",
"C.C.C.C.C.C.C.Z.Z.B.n.m.N.B.Z.C.C.C.C.C.B.&.&.C.C.C.B.2.W Z g - ^ ^ ^ ^ ( ' } 6.7.N.C.C.C.C.C.C.C.C.",
"C.C.C.C.C.C.C.C.C.C.C.C.C.C.C.C.C.C.C.C.C.C.C.C.C.C.C.C.C.D.7.A. .| | |  .>.S.C.C.C.C.C.C.C.C.C.C.C.",
"C.C.C.C.C.C.C.C.C.C.C.C.C.C.C.C.C.C.C.C.C.C.C.C.C.C.C.C.C.C.C.C.C.C.C.C.C.C.C.C.C.C.C.C.C.C.C.C.C.C.",
"C.C.C.C.C.C.C.C.C.C.C.C.C.C.C.C.C.C.C.C.C.C.C.C.C.C.C.C.C.C.C.C.C.C.C.C.C.C.C.C.C.C.C.C.C.C.C.C.C.C.",
"C.C.C.C.C.C.C.C.C.C.C.C.C.C.C.C.C.C.C.C.C.C.C.C.C.C.C.C.C.C.C.C.C.C.C.C.C.C.C.C.C.C.C.C.C.C.C.C.C.C.",
"C.C.C.C.C.C.C.C.C.C.C.C.C.C.C.C.C.C.C.C.C.C.C.C.C.C.C.C.C.C.C.C.C.C.C.C.C.C.C.C.C.C.C.C.C.C.C.C.C.C.",
"C.C.C.C.C.C.C.C.C.C.C.C.C.C.C.C.C.C.C.C.C.C.C.C.C.C.C.C.C.C.C.C.C.C.C.C.C.C.C.C.C.C.C.C.C.C.C.C.C.C.",
"C.C.C.C.C.C.C.C.C.C.C.C.C.C.C.C.C.C.C.C.C.C.C.C.C.C.C.C.C.C.C.C.C.C.C.C.C.C.C.C.C.C.C.C.C.C.C.C.C.C."
};
