/* XPM */
static char *d88526b38617460cd6f55f7b006ede0cN25uDfzq7fjjbyXI[] = {
/* columns rows colors chars-per-pixel */
"50 50 148 2 ",
"   c None",
".  c #1A181B",
"X  c #201E21",
"o  c #222123",
"O  c #25262A",
"+  c #2C2B2D",
"@  c #3D352D",
"#  c #2D2D30",
"$  c #2A313E",
"%  c #373537",
"&  c #363438",
"*  c #3B3A3C",
"=  c #40352B",
"-  c #423E3A",
";  c #474039",
":  c #4D443C",
">  c #51443B",
",  c #53483F",
"<  c #2A3341",
"1  c #403F41",
"2  c #434244",
"3  c #4C4744",
"4  c #4F4946",
"5  c #46464A",
"6  c #484749",
"7  c #4B494A",
"8  c #534A43",
"9  c #524E4C",
"0  c #51504F",
"q  c #5D534B",
"w  c #545356",
"e  c #595656",
"r  c #5D5856",
"t  c #555559",
"y  c #585758",
"u  c #625B56",
"i  c #685E56",
"p  c #685F5A",
"a  c #6C6157",
"s  c #66615F",
"d  c #736456",
"f  c #7D6B57",
"g  c #796A5A",
"h  c #666463",
"j  c #706F73",
"k  c #777575",
"l  c #787676",
"z  c #7C797B",
"x  c #9B6D3C",
"c  c #A2713F",
"v  c #A9723A",
"b  c #B37A3C",
"n  c #B97F3D",
"m  c #9C7144",
"M  c #9C764F",
"N  c #856F57",
"B  c #836E58",
"V  c #8A7257",
"C  c #877158",
"Z  c #8B7259",
"A  c #947553",
"S  c #987451",
"D  c #967957",
"F  c #917658",
"G  c #967A59",
"H  c #9A7B59",
"J  c #A37544",
"K  c #AD7A43",
"L  c #A1764A",
"P  c #A1794F",
"I  c #AA7D4E",
"U  c #B07C43",
"Y  c #A27C54",
"T  c #AB7F51",
"R  c #A27E5B",
"E  c #83756A",
"W  c #977B60",
"Q  c #867F7A",
"!  c #BC8446",
"~  c #B5834A",
"^  c #BC8649",
"/  c #BF8A4D",
"(  c #AE8355",
")  c #A4815A",
"_  c #AC855C",
"`  c #AF895F",
"'  c #B48653",
"]  c #B58857",
"[  c #BC8B54",
"{  c #B0875C",
"}  c #B38A5B",
"|  c #BB8D5B",
" . c #BE905C",
".. c #A68562",
"X. c #A98562",
"o. c #AD8964",
"O. c #A3876D",
"+. c #AC8C6B",
"@. c #B18B63",
"#. c #B88E62",
"$. c #B38F6B",
"%. c #BC9264",
"&. c #B4916B",
"*. c #BC956A",
"=. c #B09173",
"-. c #B99774",
";. c #BE9A76",
":. c #B29679",
">. c #B6997A",
",. c #BE9D7A",
"<. c #C58A44",
"1. c #C48E4D",
"2. c #CB924F",
"3. c #C38E52",
"4. c #C59155",
"5. c #CB9555",
"6. c #CE9857",
"7. c #C7955B",
"8. c #CA9659",
"9. c #C8955B",
"0. c #C8965B",
"q. c #C9965B",
"w. c #CA975B",
"e. c #C8965C",
"r. c #C9975D",
"t. c #C8975D",
"y. c #C9965B",
"u. c #CF995B",
"i. c #CA985E",
"p. c #CB995F",
"a. c #CD995C",
"s. c #CD9A5E",
"d. c #CD995B",
"f. c #D29B59",
"g. c #CA9A60",
"h. c #8C8A8A",
"j. c #9A9898",
"k. c #B9A085",
"l. c #BAA288",
"z. c #B9A18A",
"x. c #A3A1A2",
"c. c #C1AC96",
"v. c #C3AB94",
"b. c #C6B09C",
"n. c #C2B2A2",
"m. c #C4B3A0",
"M. c #CDBFB0",
"N. c #D3CDCA",
/* pixels */
"                                                                                                    ",
"                                                                                                    ",
"                                                                                                    ",
"                                                                                                    ",
"                                                W                                                   ",
"                  z.o._ +.n.          |   ..) R J F g d E                 h e 6 6 z                 ",
"              m.m J ( _ ( L +.    &.R K ~ ' ~ Y N d u r u 9 @ > Q     l . # * 1 * o + x.            ",
"            z.x { @.@.@.@.@.X.) ( U ^ [ 4.9.| ) g u r y e y w 4 ; q p & 5 6 6 6 6 7 * . h.          ",
"          c.x @.@.@.@.@.@.+.S v ! 4.7.7.7.9.7.} G f a r e w t t w - = q 7 5 6 6 6 6 6 2 . j.        ",
"          x { @.@.@.@.@.X.L U 3.7.i.t.t.t.7.9.7.} H f i y e w w t w 3 : 8 6 5 6 6 6 6 6 2 X         ",
"        ) T @.@.@.@.@...c n 9.g.t.7.7.7.7.7.7.9.7._ F d r e w w w t e 7 ; : 4 5 6 6 6 6 6 + e       ",
"      M.x @.@.@.@.@.o.c b t.i.7.7.7.7.7.7.7.7.9.9. .) B i y e w w w t t 0 : > 4 5 6 6 6 6 6 o       ",
"      :.I @.@.@.@.@.M K t.i.7.7.7.7.7.7.7.7.7.7.9.7.} F d u y e w w w w t w , 8 6 5 6 6 6 6 O k     ",
"      ) _ @.@.@.@.X.Y t.a.7.7.7.7.7.7.7.7.7.7.7.9.9. .) C d u y e e w w w t 9 8 6 5 6 6 6 6 * 9     ",
"      P @.@.@.@.o._ 9.a.7.7.7.7.7.7.7.7.7.7.7.7.7.9.7.| H C d i r y e e w w t 4 3 5 6 6 6 6 2 *     ",
"      L @.@.@.@...| u.7.7.7.7.7.7.7.7.7.7.7.7.7.7.7.9.7.} R Z f a u y e w w t 9 : 6 5 6 6 6 2 %     ",
"      L @.@.@.o._ 9.9.7.7.7.7.7.7.7.7.7.7.7.7.7.7.7.7.9.7.| _ H N d u y e w w w 8 3 5 6 6 6 2 *     ",
"      Y { @.@.X.| u.7.7.7.7.7.7.7.7.7.7.7.7.7.7.7.7.7.7.9.7.7.} ) V d u y w w w 9 8 6 5 6 6 * 6     ",
"      =.I @.o._ 7.9.7.7.7.7.7.7.7.7.7.7.7.7.7.7.7.7.7.7.7.9.9.7.| ) V d u y w w w 9 3 5 6 6 O j     ",
"      N.m @...} u.7.7.7.7.7.7.7.7.7.7.7.7.7.7.7.7.7.7.7.7.7.9.9.7.| ) V d i r y y w 4 5 6 6 O       ",
"        .._ _ | u.7.7.7.7.7.7.7.7.7.7.7.7.7.7.7.7.7.7.7.7.7.7.7.9.7.| _ D B d a i u q 6 5 $ s       ",
"          O._ 9.7.7.7.7.7.7.7.7.7.7.7.7.7.7.7.7.7.7.7.7.7.7.7.7.7.9.7.7.} ) G V f d d q < w         ",
"            | u.7.7.7.7.7.7.7.7.7.7.7.7.7.7.7.7.7.7.7.7.7.7.7.7.7.7.7.7.7.7.| _ ) F V d a           ",
"          %.7.7.7.7.7.7.7.7.7.7.7.7.7.7.7.7.7.7.7.7.7.7.7.7.7.7.7.7.7.7.9.7.7.7.| } R H ) `         ",
"      %.| 5.9.7.7.7.7.7.7.7.7.7.7.7.7.7.7.7.7.7.7.7.7.7.7.7.7.7.7.7.7.7.7.7.9.9.9.7.| } { A ..      ",
"    *.7.9.7.7.7.7.7.7.7.7.7.7.7.7.7.7.7.7.7.7.7.7.7.7.7.7.7.7.7.7.7.7.7.7.7.7.7.9.9.7.7.t.( M %.    ",
"    | 8.7.7.7.7.7.7.7.7.7.7.7.7.7.7.7.7.7.7.7.7.7.7.7.7.7.7.7.7.7.7.7.7.7.7.7.7.7.7.9.9.9. .| 7.%.  ",
"  *.5.7.7.7.7.7.7.7.7.7.7.7.7.7.7.7.7.7.7.7.7.7.7.7.7.7.7.7.7.7.7.7.7.7.7.7.7.7.7.7.7.7.9.7.7.8.%.  ",
"  | 9.7.7.7.7.7.7.7.7.7.7.7.7.7.7.7.7.7.7.7.7.7.7.7.7.7.7.7.7.7.7.7.7.7.7.7.7.7.7.7.7.7.7.9.9.9.7.%.",
"*.7.9.7.7.7.7.7.7.7.7.7.7.7.7.7.7.7.7.7.7.7.7.7.7.7.7.7.7.7.7.7.7.7.7.7.7.7.7.7.7.7.7.7.7.7.7.7.5.%.",
"@.4.t.7.7.7.7.7.7.7.7.7.7.7.7.7.7.7.7.7.7.7.7.7.7.7.7.7.7.7.7.7.7.7.7.7.7.7.7.7.7.7.7.7.7.7.7.9.5.} ",
"  | u.7.7.7.7.7.7.7.7.7.7.7.7.7.7.7.7.7.7.7.7.7.7.7.7.7.7.7.7.7.7.7.7.7.7.7.7.7.7.7.7.7.7.7.7.w.| @.",
"  %.6.7.7.7.7.7.7.7.7.7.7.7.7.7.7.7.7.7.7.7.7.7.7.7.7.7.7.7.7.7.7.7.7.7.7.7.7.7.7.7.7.7.7.7.7.9.7.  ",
"  =.[ u.7.7.7.7.7.7.7.7.7.7.7.7.7.7.7.7.7.7.7.7.7.7.7.7.7.7.7.7.7.7.7.7.7.7.7.7.7.7.7.7.7.7.9.3.+.  ",
"    @.5.7.7.7.7.7.7.7.7.7.7.7.7.7.7.7.7.7.7.7.7.7.7.7.7.7.7.7.7.7.7.7.7.7.7.7.7.7.7.7.7.7.7.6.#.    ",
"      | 6.t.7.7.7.7.7.7.7.7.7.7.7.7.7.7.7.7.7.7.7.7.7.7.7.7.7.7.7.7.7.7.7.7.7.7.7.7.7.7.7.8.[ &.    ",
"      >.#.5.9.7.7.7.7.7.7.7.7.7.7.7.7.7.7.7.7.7.7.7.7.7.7.7.7.7.7.7.7.7.7.7.7.7.7.7.7.t.5.| +.      ",
"          &./ 6.t.9.7.7.7.7.7.7.7.7.7.7.7.7.7.7.7.7.7.7.7.7.7.7.7.7.7.7.7.7.7.7.9.7.8.4.@.          ",
"            k.%.1.4.5.7.7.7.7.7.7.7.7.7.7.7.7.7.7.7.7.7.7.7.7.7.7.7.7.7.7.7.7.9.5.1.| &.            ",
"                @.R ] 1.a.7.7.7.7.7.7.7.7.7.7.7.7.7.7.7.7.7.7.u.9.7.7.7.7.t.5.[ R $.,.              ",
"                      @.b <.u.t.7.7.7.7.7.7.7.7.7.7.7.7.7.a.f.7.7.7.7.i.2.n I v.                    ",
"                          ;.' / 5.u.t.9.7.7.7.7.7.7.7.7.u.4.7.9.9.8.1.~ %.b.                        ",
"                                | K b ^ 4.1.5.9.5.9.9.9.5.6.3.! U | -.                              ",
"                                      ,.@.*.#.| %. .[ ] | ( &.                                      ",
"                                                                                                    ",
"                                                                                                    ",
"                                                                                                    ",
"                                                                                                    ",
"                                                                                                    ",
"                                                                                                    "
};
