/* XPM */
static char *f07ec7bcc32c4253d0aed973d4bc2556WBVuZKkbPY2GeFsM[] = {
/* columns rows colors chars-per-pixel */
"50 50 221 2 ",
"   c None",
".  c #080000",
"X  c #150700",
"o  c #3A1902",
"O  c #291407",
"+  c #2C221B",
"@  c #3C2C18",
"#  c #171B22",
"$  c #2C2A28",
"%  c #332D28",
"&  c #39322C",
"*  c #39373A",
"=  c #393737",
"-  c #302E31",
";  c #512D11",
":  c #673A12",
">  c #433528",
",  c #423D3C",
"<  c #443C35",
"1  c #583E23",
"2  c #754513",
"3  c #4D433C",
"4  c #40403F",
"5  c #53473E",
"6  c #784D26",
"7  c #654B36",
"8  c #76502D",
"9  c #373C45",
"0  c #423E40",
"q  c #3F4347",
"w  c #45464A",
"e  c #4C4B4B",
"r  c #464547",
"t  c #554D47",
"y  c #474C54",
"u  c #4E5256",
"i  c #545356",
"p  c #555559",
"a  c #58585C",
"s  c #57585C",
"d  c #58504C",
"f  c #685648",
"g  c #735D4C",
"h  c #635B56",
"j  c #706155",
"k  c #5A626C",
"l  c #636365",
"z  c #7A7576",
"x  c #6D7078",
"c  c #874606",
"v  c #985A18",
"b  c #96530E",
"n  c #9E611F",
"m  c #A56118",
"M  c #8C592B",
"N  c #9B6227",
"B  c #976938",
"V  c #A46623",
"C  c #AB6E2B",
"Z  c #A56827",
"A  c #AD712C",
"S  c #B1702B",
"D  c #A76E34",
"F  c #AB7234",
"G  c #A5713C",
"H  c #AC753C",
"J  c #B27535",
"K  c #B17638",
"L  c #B37B3D",
"P  c #BB7F3E",
"I  c #A6574A",
"U  c #956B44",
"Y  c #9C6F45",
"T  c #9A7349",
"R  c #846D5A",
"E  c #9A7759",
"W  c #89705D",
"Q  c #A37344",
"!  c #A87946",
"~  c #B27C42",
"^  c #A37B55",
"/  c #BC6653",
"(  c #977A63",
")  c #827A75",
"_  c #A87B66",
"`  c #B8796D",
"'  c #C16D5A",
"]  c #C97A68",
"[  c #BC823D",
"{  c #C3843B",
"}  c #B48045",
"|  c #BE8544",
" . c #B78248",
".. c #BA864B",
"X. c #BC894D",
"o. c #A88159",
"O. c #BE8B52",
"+. c #B88958",
"@. c #BE915D",
"#. c #9B8066",
"$. c #A38263",
"%. c #AD8C6B",
"&. c #A6876A",
"*. c #B3916E",
"=. c #A98C72",
"-. c #A48A75",
";. c #B28D74",
":. c #AE9276",
">. c #B49473",
",. c #B2967B",
"<. c #BB9C7B",
"1. c #B89879",
"2. c #C18846",
"3. c #C38B4C",
"4. c #C48A45",
"5. c #C28F54",
"6. c #C49155",
"7. c #CB9452",
"8. c #C7955B",
"9. c #C9965C",
"0. c #CC995E",
"q. c #D89E57",
"w. c #DBA05B",
"e. c #CC9B61",
"r. c #D58B75",
"t. c #C39E77",
"y. c #D8937D",
"u. c #C18173",
"i. c #CAA376",
"p. c #D1A97A",
"a. c #CBA06C",
"s. c #7F7F81",
"d. c #888584",
"f. c #988D85",
"g. c #949496",
"h. c #AC9584",
"j. c #AF9986",
"k. c #B49C84",
"l. c #BA9D84",
"z. c #B49E89",
"x. c #A89B95",
"c. c #AB9788",
"v. c #BDA185",
"b. c #BCA48B",
"n. c #BAA795",
"m. c #A8A5A7",
"M. c #BBADA7",
"N. c #B9B6B5",
"B. c #D29480",
"V. c #C5A483",
"C. c #CCA984",
"Z. c #C1A68B",
"A. c #C9AB8D",
"S. c #D3AE82",
"D. c #D6B389",
"F. c #C5AC94",
"G. c #C3AE9A",
"H. c #C8AC93",
"J. c #C9B195",
"K. c #C7B099",
"L. c #CBB49D",
"P. c #C7B096",
"I. c #D7B997",
"U. c #CFB08D",
"Y. c #E3B392",
"T. c #C3B3A4",
"R. c #CBB6A1",
"E. c #CEBAA5",
"W. c #C9B8AB",
"Q. c #D1BCA5",
"!. c #D2BEAA",
"~. c #D5B7AF",
"^. c #CEBCB2",
"/. c #D9BDB3",
"(. c #E9BBA9",
"). c #DFC5A4",
"_. c #DDC5AC",
"`. c #D5C1AA",
"'. c #CBC1B8",
"]. c #D3C6BD",
"[. c #D5C8BA",
"{. c #E5C7AC",
"}. c #EBC5B5",
"|. c #EEC9BA",
" X c #EACBB4",
".X c #F1C7B4",
"XX c #F1CFBF",
"oX c #E6D3BD",
"OX c #E7D3BB",
"+X c #BFC2C6",
"@X c #CAC6C6",
"#X c #D6C9C5",
"$X c #DCD3CC",
"%X c #DAD1C5",
"&X c #D9D6D6",
"*X c #CFD0CF",
"=X c #E8D8C8",
"-X c #F5DAC8",
";X c #E7DDD8",
":X c #ECCEC2",
">X c #F7E2CB",
",X c #EDE2D4",
"<X c #E5E3DB",
"1X c #ECE4DC",
"2X c #E5E1D7",
"3X c #F5E6D5",
"4X c #E5E4E3",
"5X c #ECEAE4",
"6X c #EDECEB",
"7X c #E7E9E6",
"8X c #F3EDE8",
"9X c #F4F1EB",
"0X c #FBF5EA",
"qX c #EBF2F6",
"wX c #F4F4F4",
"eX c #FCFAF5",
"rX c #F6F7F8",
"tX c #F7FBFB",
"yX c #FEFEFE",
"uX c #F8F7F3",
"iX c #EAEFF7",
/* pixels */
"                                                                                                    ",
"                                                                                                    ",
"                                                                                                    ",
"                                                                                                    ",
"                    ;X$X                                                    ].$X                    ",
"              <X^.l.:.z.v.n.              f.)   H.c ,.n.h.              ,.b.k.l.n.$X                ",
"            =X`.l.>.*.&.R.*.n.      5 + & 5 + > F 3.G N G D n B       $.L.h.&.>.1.L.%X              ",
"          $XQ.F.E.E.v.%.k.I.>.x.h & r i e r e r ^ 7.X.6.3.} H F N o.$.l.G.=.<.P.`.F.J.[.            ",
"        $XE.F.R.L.E.b.>.<.U.j + % r i p p p p y o.w.9.9.6.O.6.5...S Z E f.1.t.L.E.R.K.P.[.          ",
"      ;XQ.F.R.L.R.R.v.V.=.d = e i i i i i i i y E w.9.8.9.e.9.9.e.O.L F Y =.l.K.E.L.R.G.L.%X        ",
"      [.K.L.L.L.E.K.C.=.< & e i i i i i i p u 9 U q.9.8.8.8.8.8.9.8. .H K G $.K.Q.L.L.R.F.E.        ",
"      R.F.L.L.L.E.I.;.3 = 3 t e i i i i i i i x ].Y.3.9.8.8.8.8.8.9.e.X.H K D ,.!.R.L.L.L.L.].      ",
"    [.L.L.L.L.R.Q.V.f = 3 e i p i i i i i * s.wXyX,X| 8.8.8.8.8.8.8.9.e.X.H G Y G.!.L.L.R.K.E.      ",
"    T.F.E.L.L.Q.J.1.f < e s p i i i i i i * N.yXyXyXa.2.9.8.8.8.8.8.8.9.e...H U ,.!.R.L.R.F.b.      ",
"    b.v.!.L.E.K.C.#.= e s p i i i i i i w p wXyXyXyX).[ 9.8.8.8.8.8.9.9.9.9.L F $.G.Q.R.R.F.,.      ",
"    z.,.`.!.L.V.1.5 r s p i p i i i i i * d.yXyXyXyX8X5.5.8.8.8.8.9.9.9.9.e.O.F G =.J.E.!.Z.=.      ",
"    n.&.A.F.<.C.R = s s , $ * a i i i i * N.yXyXyXyXyXD.[ 9.8.8.e.6.B B 6.e.9.} F ^ l.Z.P.%.-.      ",
"    '.&.%.1.i.1.3 w s 0 z @Xl * s i i e e 4XyXyXyXyXyX=X| 8.8.9.7.Q N.m.B 9.e.5.K G =.<.1.$.z.      ",
"      k.-.:.C.R * p i = @XyX#Xi r p i * z yXyXyXyXyXyXyXi.| 9.0.} x.iXiXE ..0.9.~ F o.l.&.,.W.      ",
"      b.*.:.1.t w p u u M.B 8 R w p i - N.yXyXyXyXyXyXyX=X[ 9.0.E f 6 l.$...0.0.X.J Q -.>.:.        ",
"        $.t.&., i p i , -.0X@ ; h u w i wXyXyXyXyXyXyXyXyXp.{ ~ z.*XO : T 8.0.9.8.~ G %.&.n.        ",
"          L.g 9 p e w - W 2X@ O t u - g.yXyXyXyXyXyXyXyXyX8X7.N f.N.. ; +.8.9.9.e.X.C Q             ",
"            < , , e l k 7 o . o 7 q e 7XyXyXyXyXyXyXyXyXyXyX3X! o . X 8 @.0.9.8.O. .F B             ",
"          j % $ l &XyXqXx.: o : g # m.yXyXyXyXyXyXyXyXyXyXyXyX'.8 o ; M F [ | [ P X.O.D Q           ",
"      m.1 > 9 N.yXyXyXyXwXh.U H.d.d.yXyXyXyXyXyXyXyXyXyXyXyXyX*XW.^ E b.U.U.I.I.p.3.3.e.A v G.      ",
"    F.2 B w +XyXyXyXyXyXyXyX@X&X<X5XyXyXyXyXyXyXyXyXyXyXyXyXyX%X4X@X4XyXyXyXyXyXyX8Xi.6.e.L b z.    ",
"    v q.Y m.yXyXyXyXyXyXyXyXtX<XeXyXyXyXyXyXyXyXyXyXyXyXyXyXyXyX6X<XyXyXyXyXyXyXyXyXOX3.9.6.K v     ",
"  ^ [ 7.a.yXyXyXyXyXyXyXyXyXyX9X9XyXyXyXyXyXyXyXyXyXyXyXyXyXyXyX6XuXyXyXyXyXyXyXyXeXS.3.9.5.~ C Q   ",
"  Z 0.[ {.yXyXyXyXyXyXyXyXyXyXyXyXyXyXyXyXyXwXwX8XwXtXyXyXyXyXyXyXyXyXyXyXyXyXyXyXyX,X3.9.O.H ~ v   ",
"1.C 6.2.=XyXyXyXyXyXyXyXyXyXyXyXyXyXyXyX8X=X|.}.}.}.:X;XtXyXyXyXyXyXyXyXyXyXyXyXyXyXyXD.2.8.~ ~ V >.",
"&.V 5.3.oXyXyXyXyXtXwXwXwXtXyXyXyXyXyX1X(..X.X.X.X.X.X(.;XyXyXyXyXyXyXtXwXwXwXtXyX8X,XOX[ 6.~ L Z _ ",
"  N 3.3.p.OXuXyXwXwXwXwXwXwXwXwXwXyXyX/.Y.:X|.|.|..XXX(./.yXyXyXwXwXwXwXwXwXwX6XrXyXI.D.X...~ L N   ",
"  N P 5.4.8.9XyXyXyXyXyXyXyXyXtXwXwXyX#XB.-X-XXXXX-X-Xy.~.yXwXwXwXtXyXyXyXyXyXyXyXyXD.[ O.H ~ K N   ",
"  ( Z ..6.[ =XyXyXyXyXyXyXyXyXyXyXtXyXwXu.y..X}.}.(.y.` 7XyXwXyXyXyXyXyXyXyXyXyXyXyXp.3...H ~ N (   ",
"    ^ V 5.4.S.yXyXyXyXrX8XwXrXwXtXtXyXyX$XI / r.r.' I ].yXtXyXtXtXwXwXwXwXtXyXyXyX1X6.6.~ ~ S T     ",
"      c C 0.2.oXyXrXwXtX1X,XyXyXtXyXtXtXyX%X` ' ] ` #XyXyXtXyXyXtXyXyXyXtXwXwXtXyXS.2.O.L C c T.    ",
"      N.U V 4.@.6XyXeXyXyX_.,XyXwX7X6XwXtXyXwX^.T.7XyXyXyX4X4X6XwXyX5X9XyXyXyXyX`.J  .~ m U M.      ",
"          E v V +.0XyXyXtX,XI.1XyXyXtXtXyXyXyX;XE [.rXyX<XW.wXyXyX1X1XwX6XyXyX).A H J b T           ",
"            n.B c D {.5XtXyX=XI.3XyXyXtXyXyXtXW.;.G.T.T.T.<XyXyX3X[.5XyXyX7Xi.m v v B n.            ",
"                j.( B @. X;X9X>X{.oXeXyXwX$X^.;XyXyX5X5XyXyX9X=X X3XoX_.S.m c Q -.h.                ",
"                      l.h.G.Q.Q.L.Z.b.oX0X9XyXyXyXyXyXyXeX>X).v.n.V.+.B B o.G.                      ",
"                                      '.Z.Q.OX-X3X-XoX).A.Z.].                                      ",
"                                            ^.E.R.R.R.W.                                            ",
"                                                                                                    ",
"                                                                                                    ",
"                                                                                                    ",
"                                                                                                    ",
"                                                                                                    ",
"                                                                                                    ",
"                                                                                                    "
};
