/* XPM */
static char *_7b9da7d0f98472188e50efd0ed5f342QA0DT05lEBZtFgIn[] = {
/* columns rows colors chars-per-pixel */
"50 50 226 2 ",
"   c None",
".  c #050000",
"X  c #1E0700",
"o  c #181310",
"O  c #280900",
"+  c #371801",
"@  c #2D1C0E",
"#  c #2B251F",
"$  c #33271B",
"%  c #292725",
"&  c #332D2B",
"*  c #292B31",
"=  c #343233",
"-  c #3B3532",
";  c #3C3B3D",
":  c #373738",
">  c #512B0C",
",  c #683D16",
"<  c #43372D",
"1  c #443C39",
"2  c #433B35",
"3  c #593B26",
"4  c #7E460E",
"5  c #4C433E",
"6  c #45413B",
"7  c #57463A",
"8  c #714D2E",
"9  c #2F3A48",
"0  c #434243",
"q  c #4A4644",
"w  c #4C4B4C",
"e  c #494847",
"r  c #564D46",
"t  c #57514C",
"y  c #4D4E51",
"u  c #434853",
"i  c #4F5357",
"p  c #545356",
"a  c #555559",
"s  c #5B595A",
"d  c #504E52",
"f  c #675546",
"g  c #735B49",
"h  c #675A52",
"j  c #726559",
"k  c #555D64",
"l  c #6A6869",
"z  c #757374",
"x  c #6C6D70",
"c  c #8D0609",
"v  c #90110C",
"b  c #8A3916",
"n  c #932E11",
"m  c #9A3A3B",
"M  c #965512",
"N  c #96591B",
"B  c #8A4A0D",
"V  c #A25E16",
"C  c #A2621D",
"Z  c #AA671E",
"A  c #9B4425",
"S  c #975E24",
"D  c #8B5D2F",
"F  c #9B632B",
"G  c #9C6427",
"H  c #8B653D",
"J  c #9D6D3E",
"K  c #996532",
"L  c #9F713E",
"P  c #A86A28",
"I  c #B8742A",
"U  c #A46C33",
"Y  c #A36C38",
"T  c #AD7234",
"R  c #AE763C",
"E  c #A8753A",
"W  c #B17533",
"Q  c #B2793B",
"!  c #B77B37",
"~  c #AD702B",
"^  c #9D5C42",
"/  c #A95A4A",
"(  c #946D4C",
")  c #976A46",
"_  c #9D744D",
"`  c #9D7448",
"'  c #816D5D",
"]  c #997758",
"[  c #896A46",
"{  c #A37343",
"}  c #AC7C45",
"|  c #A67849",
" . c #B37D42",
".. c #B96652",
"X. c #A27D5B",
"o. c #A77D53",
"O. c #B77357",
"+. c #8C7663",
"@. c #997C64",
"#. c #B67570",
"$. c #C26C5B",
"%. c #C07A6C",
"&. c #BB813C",
"*. c #C0833C",
"=. c #BD8444",
"-. c #BA864B",
";. c #BC894F",
":. c #B68247",
">. c #A4825B",
",. c #BE8C52",
"<. c #B68856",
"1. c #BF915C",
"2. c #9C8677",
"3. c #AA8B6C",
"4. c #A78768",
"5. c #BA9769",
"6. c #AA8D73",
"7. c #A68B76",
"8. c #AD9076",
"9. c #AC927B",
"0. c #B49474",
"q. c #B4967A",
"w. c #BC9B7B",
"e. c #B99878",
"r. c #BE8B7B",
"t. c #C08643",
"y. c #C28844",
"u. c #C38D4D",
"i. c #C28E51",
"p. c #C69255",
"a. c #C6955B",
"s. c #C9965C",
"d. c #CB985E",
"f. c #C99454",
"g. c #CF9550",
"h. c #DCA35D",
"j. c #CC9B62",
"k. c #D58B75",
"l. c #C29D78",
"z. c #D1907E",
"x. c #CCA476",
"c. c #D3AB7A",
"v. c #D0A46E",
"b. c #B97081",
"n. c #98928C",
"m. c #AA8F81",
"M. c #AA9888",
"N. c #B69D87",
"B. c #BDA285",
"V. c #BBA38A",
"C. c #B6A28F",
"Z. c #B9A697",
"A. c #ACA49F",
"S. c #9F9EA0",
"D. c #AAAAAA",
"F. c #BBACA4",
"G. c #BAB2AC",
"H. c #B7B6B6",
"J. c #CC8C8A",
"K. c #E09B84",
"L. c #C1A384",
"P. c #C2A78B",
"I. c #CAAC8B",
"U. c #D4AF85",
"Y. c #D4B48A",
"T. c #C5AD95",
"R. c #C5AC96",
"E. c #C5B09D",
"W. c #CBB49D",
"Q. c #CCB297",
"!. c #D7BA98",
"~. c #E5B693",
"^. c #C6ADA4",
"/. c #CCB6A1",
"(. c #CEBAA5",
"). c #C7B6A7",
"_. c #D1BCA4",
"`. c #D2BEA9",
"'. c #D8B5A8",
"]. c #C7BCB5",
"[. c #D7BDB7",
"{. c #E8BBAA",
"}. c #EAC492",
"|. c #DEC3A2",
" X c #D8C5AB",
".X c #CCC3BA",
"XX c #D2C1BA",
"oX c #DCCEBF",
"OX c #D6C8B7",
"+X c #E3CAAD",
"@X c #EDC6B5",
"#X c #EDC9B9",
"$X c #E2CABA",
"%X c #F0C6B3",
"&X c #F2CFBF",
"*X c #E6D7BA",
"=X c #E0D1AE",
"-X c #D9B9C6",
";X c #CAC5C4",
":X c #D5CBC4",
">X c #DCD4CD",
",X c #DDD1C3",
"<X c #D8D6D4",
"1X c #E8D7CC",
"2X c #F5D7C6",
"3X c #E5DDDA",
"4X c #EACCC0",
"5X c #F8E3CE",
"6X c #E3E2DD",
"7X c #EAE5DD",
"8X c #EBE4D6",
"9X c #F2E7D9",
"0X c #DEE0E9",
"qX c #E4E4E3",
"wX c #EAEAE5",
"eX c #EDEDED",
"rX c #EDE4E4",
"tX c #F5EDE5",
"yX c #F4F2ED",
"uX c #FCF8ED",
"iX c #F4F4F4",
"pX c #F9F9F6",
"aX c #F6FAFC",
"sX c #FEFEFE",
"dX c #F8F7F8",
"fX c #ECF0F5",
/* pixels */
"                                                                                                    ",
"                                                                                                    ",
"                                                                                                    ",
"                                                                                                    ",
"                                                                                                    ",
"                  >X.X.X.X                n.n.  W.M N.E.M.                ]..X:X                    ",
"              1XE.q.3.N.B.9.        r $ 5 r # 1 Q y.{ S L } G (       C.q.V.3.0.P.,X                ",
"            ,X/.N.L.e.4.E.l.T.  j < 2 5 e y w : >.g.i.-.u.=.R U K 0.M.e.`.7.0.L.N.W.oX3X            ",
"          oXQ.T.(.(.B.3.P.|.g # % e p a p a p u ] h.a.d.a.-.,.i.=.P N 4.M.0.N./.`.W.T.OX6X          ",
"        oXW.T./.W.(.B.x.6.h - 6 t a a p p p a 9 [ g.a.s.a.d.j.j.p.:.Q Y _ 6.P./././.W.T.OX          ",
"      >X(.T./.W./.W.I.6.1 & q p a p p p p a w u M.}.p.a.a.a.a.a.a.d.s.=.W { 8.(./.W./.E.W.,X        ",
"      `.T./.W.W.(.!.e.5 - r a a p p p p p y y H.aXsXj.u.a.a.a.a.s.p.,.-. .T J Z. XW.W./.T.(.        ",
"    >XW.E.W.W.W.`.I.f - t a a p p p p p p ; z sXsXsX!.&.s.a.a.a.s.a.i.;.} R U X.`.(.W.W.W.W.OX      ",
"    XXW.W.W.W.(._.w.r q a a p p p p p p p = D.sXsXsX1X=.a.a.a.a.a.s.d.j.p.:.E ( E.`.W.W.W.W.).      ",
"    Z.P.(.W./.(.Y.@.6 i a p p p p p p p w w qXsXsXsXsXv.t.s.a.a.a.a.s.a.j.d.:.U 6. X/.W./.T.C.      ",
"    M.B.`./.`.Q.e.5 0 p p p a p p p p p ; z sXsXsXsXsX+X&.s.a.a.a.d.d.d.s.d.s.! J C. X/.(.P.8.      ",
"    M.0.`._.T.U.' = r p 0 % 0 s p p p p = D.sXsXsXsXsXpXs.u.a.a.j.p.F E a.s.j.i.U X.R.(.`.q.7.      ",
"    Z.4.L.B.l.e.5 2 t 0 z H.p ; s p p d 0 <XsXsXsXsXsXsX!.! s.d.u.| G.m.L d.d.s.Q { 8.L.P.4.M.      ",
"    XX6.4.w.U.+.& q a 1 ;XsX].e e a p ; x sXsXsXsXsXsXsXyXi.u.d.} A.aX0X) u.d.j.;.U 4.L.3.4.^.      ",
"      N.6.8.w.t - p p p ^.H H ' 0 a p = D.sXsXsXsXsXsXsXsX|.! d.] g H Z.] u.d.d.p.Q | 9.6.q.:X      ",
"      Z.4.L.@.- w a y = 9.tX+ > s p 0 p iXsXsXsXsXsXsXsXsXsXv.C F.H.O 8 o.a.d.d.j.=.Y 4.0.q.        ",
"        9.l.j - q - 0 = +.7X$ O f i * S.sXsXsXsXsXsXsXsXsXsXuXJ M.D.. 3 <.d.p.,.i. .T o.M.          ",
"          ).< # % n.eXaX@.X . + 7 * s sXsXsXsXsXsXsXsXsXsXsXsXE.O . X 8 ;.u.W W Q  .Q K             ",
"          l o l <XsXsXsX^.> + , g k qXsXsXsXsXsXsXsXsXsXsXsXsX]., + > ( 5.x.U.U.v.=.=.Q 4.          ",
"      F.$ o x sXsXsXsXiXqX7.) N.G.qXsXsXsXsXsXsXsXsXsXsXsXsXsX;X^.` ] <XpXaXsXsXsX9Xc.f.! S         ",
"    Q.> % l pXsXsXsXsXsXsXsX.X<X3XwXsXsXsXsXsXsXsXsXsXsXsXsXpX:XqX.XwXsXsXsXsXsXsXsX9Xj.s.t.M E.    ",
"    V 8 9 ;XsXsXsXsXsXsXsXsXiX6XpXpXsXsXsXsXsXsXsXsXsXsXsXsXsXsXwX7XsXsXsXsXsXsXsXsX Xp.p.,.W N     ",
"  { I _ k aXsXsXsXsXsXsXsXsXsXeXyXsXsXsXsXsXsXsXsXsXsXsXsXsXsXsXwXpXsXsXsXsXsXsXsXsXuXs.i.-.} P o.  ",
"  N i.u.M.sXsXsXsXsXsXsXsXsXsXsXsXsXsXsXsXaXpXiXyXiXsXsXsXsXsXsXsXsXsXsXpXpXpXsXsXsXsX+X=.s. .Q S   ",
"e.C p.y.~.sXpXsXsXsXsXsXsXsXsXsXsXsXsXsXtX1X4X#X@X#X1XrXsXsXsXsXsXiXiXiXiXiXiXeXiXsX9X8Xp.a.-.R C V.",
"@.~ -.u.j. X7XsXsXpXiXiXiXpXsXsXsXsXsX3X{.%X%X@X%X%X%X{.rXsXpXiXiXiXpXsXsXsXsXsXpXsX|.Y.x.f.-.R G 6.",
"  G  .s.i.=.*XsXiXeXiXiXiXiXiXiXpXsXsX'.~.&X#X#X#X#X2X{.$XsXiXpXsXsXsXsXsXsXsXsXsXsX*X&.d.d.:.Q F   ",
"  S Q ,.p.*.Y.sXsXsXsXsXsXsXsXpXiXiXsX[.K.5X2X&X&X2X2Xz.[.sXpXpXiXiXpXaXiXpXsXsXsXsX+X! a.s. .T K   ",
"  @.G =.,.p.a.yXsXsXsXsXsXsXsXsXsXpXsXeX%.K.@X@X@X{.k.#.eXsXpXpXsXwX:XsXpXiXiXdXsXsXx.y.j.,.Q F 2.  ",
"    _ ~  .s.t.!.sXsXsXiXiXiXiXiXaXpXsXsXXX/ $.k.k.../ >XsXiXiXiXsXqXD.eXsXsXpXiXsX*Xt.a.p. .Z X.    ",
"      4 P u.i.! 2XsXiXiXpXsXsXsXsXsXiXpXsX:X#.....#.;XsXsXsXsXwX<X<XpXpXiXpXsXsX7X,.f.;. .P B       ",
"        ( C -.R :.8XsXsXsXiXiXiXqXeXiXpXsXsX<X].XXqXsXiX^.r.m.<XeXiXdXsXdXiXsX9Xp.&.,.Q V ]         ",
"          X.M R T y.5XsXaXiXsXqX].yXsXiXXX>XsXsXsXsXsXI.A b XXsXsXsXiXfXsXsXOXi.!  .~ M 4.          ",
"            F.K N M ~ _.pXsXaXsXiX6XfXF.b O.$X$X/.r./ A A XXsXsXaXsXsXaX1Xc.&.W S N J ).            ",
"                M.2.` B  .`.9XsXsXiXtXsX3X^ n n v c c m :XsXsXsXtX7X+Xj.~ V M | m.N.                ",
"                      E.>.{ | o.o.X.` 1.5X7X^.b.#.J.-XsXsXtXI._ J J S F o.0.^.                      ",
"                                      V.S } Y. X=X*X*XI.o._                                         ",
"                                            e.e.w.5.4.0.                                            ",
"                                                                                                    ",
"                                                                                                    ",
"                                                                                                    ",
"                                                                                                    ",
"                                                                                                    ",
"                                                                                                    ",
"                                                                                                    "
};
