/* XPM */
static char *_7e25cbde6ab46c9b8c95b842d8d263e[] = {
/* columns rows colors chars-per-pixel */
"50 50 225 2 ",
"   c None",
".  c #170700",
"X  c #040000",
"o  c #251300",
"O  c #361903",
"+  c #220E00",
"@  c #3C2811",
"#  c #131927",
"$  c #29292E",
"%  c #332D2A",
"&  c #2E313B",
"*  c #36373C",
"=  c #36302B",
"-  c #4B2C0C",
";  c #503114",
":  c #69360B",
">  c #6C3407",
",  c #43372C",
"<  c #714118",
"1  c #5C4636",
"2  c #4E433B",
"3  c #664C37",
"4  c #775439",
"5  c #6F4D2F",
"6  c #3A3B40",
"7  c #3D414A",
"8  c #3D4656",
"9  c #4B4A4B",
"0  c #474748",
"q  c #574B40",
"w  c #444A56",
"e  c #4B4E54",
"r  c #494F59",
"t  c #545356",
"y  c #545559",
"u  c #5D5A5A",
"i  c #4F5056",
"p  c #695948",
"a  c #766553",
"s  c #787778",
"d  c #7C736D",
"f  c #9B5307",
"g  c #9C5A15",
"h  c #9A5B19",
"j  c #944628",
"k  c #81583A",
"l  c #945B2A",
"z  c #9E662C",
"x  c #996329",
"c  c #8E613E",
"v  c #9E6B38",
"b  c #A66828",
"n  c #AE712D",
"m  c #A06E3A",
"M  c #A26D34",
"N  c #AC7235",
"B  c #AC753C",
"V  c #AF783F",
"C  c #A6733D",
"Z  c #B37A3D",
"A  c #B47835",
"S  c #B0702B",
"D  c #865F40",
"F  c #8A6549",
"G  c #9B6C44",
"H  c #936C4B",
"J  c #9A6644",
"K  c #9D734B",
"L  c #9B7047",
"P  c #8C6C53",
"I  c #846D59",
"U  c #916E54",
"Y  c #8D735A",
"T  c #9C7555",
"R  c #94745B",
"E  c #9B795E",
"W  c #967359",
"Q  c #A67543",
"!  c #AE7A43",
"~  c #A2734E",
"^  c #A77A48",
"/  c #B27C43",
"(  c #B07E48",
")  c #A57A57",
"_  c #AC6D50",
"`  c #8B7966",
"'  c #947961",
"]  c #9C7D63",
"[  c #967A64",
"{  c #D17851",
"}  c #D57E65",
"|  c #BE823C",
" . c #C1843F",
".. c #BC8444",
"X. c #BA864C",
"o. c #B7834A",
"O. c #AC845C",
"+. c #A2815A",
"@. c #BE8B52",
"#. c #B88B59",
"$. c #9B826C",
"%. c #998876",
"&. c #8F807C",
"*. c #A48265",
"=. c #A4846A",
"-. c #AA8869",
";. c #B38C68",
":. c #AC8F75",
">. c #AA8A7B",
",. c #B28D70",
"<. c #AD9078",
"1. c #B39374",
"2. c #B4967B",
"3. c #B8977A",
"4. c #B6936B",
"5. c #C18643",
"6. c #C28946",
"7. c #C38B4A",
"8. c #C98B42",
"9. c #CB924E",
"0. c #C28E52",
"q. c #CF815C",
"w. c #C49156",
"e. c #C7955B",
"r. c #C9965C",
"t. c #CB995D",
"y. c #C99659",
"u. c #D49D5B",
"i. c #DEA35C",
"p. c #E1A55D",
"a. c #D88266",
"s. c #CC9B61",
"d. c #C89B66",
"f. c #DC8B72",
"g. c #CF8D74",
"h. c #E3967E",
"j. c #E99062",
"k. c #CDA26F",
"l. c #D7A363",
"z. c #CAA273",
"x. c #737980",
"c. c #8A8888",
"v. c #AC9686",
"b. c #B49B84",
"n. c #B99D84",
"m. c #BC988A",
"M. c #BCA186",
"N. c #BCA38A",
"B. c #B6A18B",
"V. c #B3A294",
"C. c #BDA998",
"Z. c #AAA9AA",
"A. c #B6AFA8",
"S. c #BBB1AA",
"D. c #B3B4B7",
"F. c #D99981",
"G. c #E49B83",
"H. c #EA9D85",
"J. c #C3A68A",
"K. c #D6A48A",
"L. c #D6B489",
"P. c #C3AA92",
"I. c #C4AD9B",
"U. c #CAA492",
"Y. c #D3AC92",
"T. c #CBB59E",
"R. c #C8B59F",
"E. c #D9BA97",
"W. c #E4AB90",
"Q. c #CCB6A1",
"!. c #CEB9A2",
"~. c #CBBBAE",
"^. c #C3B4A8",
"/. c #D2BCA5",
"(. c #D2BEA9",
"). c #D9B6A4",
"_. c #C9BBB5",
"`. c #DFBEB5",
"'. c #EABCA7",
"]. c #F1B9A7",
"[. c #DFC19E",
"{. c #D5C1AB",
"}. c #DAC2A9",
"|. c #CDC3B9",
" X c #DCCBBC",
".X c #D6C6B7",
"XX c #DFD1BB",
"oX c #E3C8A9",
"OX c #EDC5B4",
"+X c #E7CABA",
"@X c #F2CDBD",
"#X c #F0C6B5",
"$X c #E6D3BB",
"%X c #C6C4C4",
"&X c #CECAC6",
"*X c #D9CCC4",
"=X c #DAD3CB",
"-X c #D2D2D3",
";X c #DAD6D4",
":X c #CED1D9",
">X c #E9CEC4",
",X c #F2CFC1",
"<X c #EBDBC6",
"1X c #E5D6C8",
"2X c #F2D1C2",
"3X c #FBD7C7",
"4X c #E4DDD6",
"5X c #EEE2CE",
"6X c #EBE2DD",
"7X c #EEE1D2",
"8X c #F1E6DA",
"9X c #F6E9D8",
"0X c #CEDCEF",
"qX c #D6E6FA",
"wX c #EDEDED",
"eX c #E8E8E5",
"rX c #F4EDE5",
"tX c #F0EEED",
"yX c #F8F1E9",
"uX c #EEF1F3",
"iX c #F4F4F4",
"pX c #F5FBFE",
"aX c #FFFFFF",
"sX c #F9F8F5",
"dX c #EDEEF1",
/* pixels */
"                                                                                                    ",
"                                                                                                    ",
"                                                                                                    ",
"                                                                                                    ",
"                                                      .X4X                                          ",
"                                                  [ E T./.R..X                                      ",
"                                                v.c 1.R F W ] b.=X                                  ",
"              =X^.V.A.4X                        F ,.W 4 E -.:.*.<.*X                                ",
"            V.B.N.2.E R I.4X                    4 O.k D ;.n.{..XN.b.                                ",
"        &Xb.P.T./.{.{.*.4 P.=X                c.1 3 3 4 H ) *.3./.T.^.                              ",
"        B.T.!.T.T.T.!.{.=.F T.;X        d * % = 0 0 9 9 2 1 3 D T P.T.                              ",
"      V.T.Q.T.T.T.T.T.(.T.F *. X    ) b x a w 8 y y y t e 9 0 q 4 F 3.*X                            ",
"    |.M.Q.T.T.T.T.T.T.Q./.=.P  X~.h S r.l.p.#.a w w t t y y y e e p F P.                            ",
"    C.T.T.T.T.T.T.T.T.T.(.b.F R..XN ..0.w.r.u.i.O.u 8 i t t t t y w 9 P                             ",
"    B./.T.T.T.T.T.T.T.T.{.N.F C.T.Q B / w.r.e.r.i.u.I 8 e t t t t t e 7 `                           ",
"    M.Q.T.T.T.T.T.T.T.Q.!.n.U N.b.H m 0.s.e.e.e.e.u.p.+.r 7 * * 9 e 0 0 6 `                         ",
"  |.N.Q.T.T.T.T.T.T.Q.T.B.-.E =.[ G o.s.e.e.e.e.e.e.r.p.Q c.D.s 0 u s 9 & 6 '                       ",
"  _.P.Q.T.T.T.T.T.T./.I.=.] R R H B 0.s.e.e.e.e.e.e.e.e.8.L.aXaXeX-X%X-Xs $ & =.                    ",
"  |.J.Q.T.T.T.T.T.T.{.n.E R P Q G ! w.t.e.e.e.e.e.e.e.e.r.| <XaXaXaXaXaXaXZ.* $ 1.                  ",
"  *XN.!.T.T.T.T.T./.!.-.R I T Z / ( e.r.t.t.y.t.e.e.e.e.e.5.d.aXaXaXaXaXaXaX;X7 = J.                ",
"    b./.(.T.T.T./.{.2.R H ' ) ..0.X.e.s.5.Z o...9.t.e.e.e.e.| <XaXaXaXaXaXaXaXtX7 , L.              ",
"    :.=.P.{./.(.T.<.T Y H ) ~ 7.r.@.r...,.S.%X|.;.5.y.e.e.r.| E.aXaXaXaXaXaXaXaXeX& q E.            ",
"    C.k R :.2.2.=.P G Z ( Q C 0.s.t...H &.$.$.Z.0Xn. .t.e.e.6.k.aXaXaXaXaXaXaXaXaX-X# a [.          ",
"      E H P U U W R R Q ..w./ X.s.y.Q 4 5 : : > %.qX1.5.e.e.0.t.sXaXaXaXaXaXaXaXaXaXZ.# I }.        ",
"        F T ] E ' T K Q / 0.e.0.s.9.J 4 - o . - > S.:XN 0.t.0.e.sXaXaXaXaXaXaXaXaXaXaXc.# Y oX      ",
"          [ ] -.*.' K B o.w.r.r.t.w.G ; . . , %XT.*.qX) | s.6.k.aXaXaXaXaXaXaXaXaXaXaXaXx.# Y }.    ",
"          b.c $.$.K Z w.e.e.r.r.s.w.J O + X %.aXaX*.pXv.A s.A E.aXaXaXaXaXaXaXaXaXsXyXyXyXs t 4.{.  ",
"          1.b ~ H / t.t.r.r.e.0.@.0.~ - . + @ A.2.) aXS.B 7...yXaXaXaXaXaXaXaX6X4X1X+X+X2X9X+X+X/.  ",
"          V.b B Q 0.X.0.r.e.e.0.@...~ 4 O + . O >  XaX_.g 7.<XaXaXaXaXaXaX7X.X+X+X@X,X@X@X@X3X3XOX~.",
"            M C ! Z o.s.e.e.e.r.s.t.@.~ D : : < M.aXaX~.z.yXaXaXaXaXaXaX<XY.+X2X#XOXOX@X2X,X@X3X].>.",
"            z Z B / t.@.w.r.e.e.e.e.l.9.l H ,..XaXaX;XI.aXaXsXsXsXsXaXaX$XK.@X@X@X2X2XOX].'.OX].K.V.",
"            M Z B X.0.B e.r.e.e.e.t.5.w.L.~.6X6X.X|.!.7XpXwXiXiXiXiXwXiXiXK.h.@X@XOXW.G.h.G.H.} '.eX",
"            ) n ! / ! B w.t.e.e.r.6.d.8XaX9X7XrX4XrXaXaXaXaXaXaXaXaXaXsXpXeXg.a.H.H.h.G.H.G.f.K.9X-X",
"            P.g / V V B @.s.e.e.0.e.5XaXaXrX8XaXaXaXaXaXaXaXaXaXaXaXaXaXaXaXiX).g.{ a.f.h.F.Y.5XiX_.",
"              v n / / B o.t.r.e.0.d.+XrXaXaXaXaXaXaXaXaXaXaXaXsXiXiXiXsXsXsXaXaXwX>X`.,XU.Y.5XsXdX  ",
"              ~.g Z / / B 0.s.e.e.0.L.yXaXaXaXaXaXaXaXaXaXiXwXsXaXaXaXaXsXaXsXsXaXaXaXaXJ.}.sXaX;X  ",
"                2.g / / B ! e.s.e.6.k.aXaXaXaXaXaXaXaXsXwXwXpXsX_.tXaXiXwXeXwXsXaXaXaX/.J.iXaXwX    ",
"                  -.g Z / B / r.s.0.w.sXaXaXaXaXaXaXaXsXsXaXaXtX^._.eXaXaXaXaXaXaXaX<X3.rXaXsX%X    ",
"                    2.h n / B / e.s.5.L.aXaXaXaXaXaXaXaXaXaXsXuXaX6XC.I.4XtX=X1X X X1.8XaXaX-X      ",
"                        m h N V V @.r.6.E.aXaXaXaXaXaXaXaXsXwXaXsXpXsX_ j >.4XeX=Xm.) $X6X&X        ",
"                          M.m h b N / X.A k.5XaXaXaXaXaXaXsXaXaXeXsXaX).{ q.U.U.J.>X6X^.S.          ",
"                              I.O.z h b N S A z.$XsXaXaXaXaXaXaXaXaXaXuXW.j.j J 1XpXeX              ",
"                                    I.;.Q x h f f N d.L.oX<X9X9XrX9X8XrXXX4.3.;XeX                  ",
"                                              J.3.O.v x x z M ! ! #.;.1.T.                          ",
"                                                                                                    ",
"                                                                                                    ",
"                                                                                                    ",
"                                                                                                    ",
"                                                                                                    ",
"                                                                                                    "
};
