/* XPM */
static char *_ac1d3db67724dbba004e3a1d9a0ae87[] = {
/* columns rows colors chars-per-pixel */
"50 50 221 2 ",
"   c None",
".  c #190900",
"X  c #150300",
"o  c #020000",
"O  c #251400",
"+  c #351B03",
"@  c #210E00",
"#  c #131926",
"$  c #2A2A2E",
"%  c #2F3139",
"&  c #38373A",
"*  c #2F2E2F",
"=  c #442A0E",
"-  c #513011",
";  c #6B3507",
":  c #673D18",
">  c #763A05",
",  c #473725",
"<  c #7B4313",
"1  c #4C423A",
"2  c #5C4635",
"3  c #774C27",
"4  c #75543C",
"5  c #7B563C",
"6  c #6A4E37",
"7  c #393D45",
"8  c #3D4656",
"9  c #444446",
"0  c #4A4A4B",
"q  c #48494A",
"w  c #524A44",
"e  c #464B56",
"r  c #4C4E53",
"t  c #474E59",
"y  c #545356",
"u  c #545559",
"i  c #5C5A5B",
"p  c #645345",
"a  c #705E4A",
"s  c #786755",
"d  c #757576",
"f  c #706F71",
"g  c #9B5308",
"h  c #9C5A14",
"j  c #995B19",
"k  c #A05E19",
"l  c #934628",
"z  c #825A3A",
"x  c #925A2A",
"c  c #9D6225",
"v  c #9E662C",
"b  c #95632C",
"n  c #9E6B38",
"m  c #8E633F",
"M  c #A56928",
"N  c #AE702D",
"B  c #A26E37",
"V  c #A5713E",
"C  c #AC753C",
"Z  c #AF783F",
"A  c #AD7336",
"S  c #B07534",
"D  c #B37A3E",
"F  c #B77C37",
"G  c #B1722D",
"H  c #855F42",
"J  c #8A6548",
"K  c #9C6E43",
"L  c #946C4B",
"P  c #946744",
"I  c #9B7249",
"U  c #896B55",
"Y  c #916D53",
"T  c #8D725A",
"R  c #9C7655",
"E  c #94745B",
"W  c #9D7A5C",
"Q  c #95765A",
"!  c #A57543",
"~  c #AE7942",
"^  c #A7784A",
"/  c #B27C43",
"(  c #A47956",
")  c #A5684B",
"_  c #947A62",
"`  c #9C7B62",
"'  c #977A64",
"]  c #A07F66",
"[  c #D37951",
"{  c #D37D64",
"}  c #BC823D",
"|  c #C0833C",
" . c #BD8444",
".. c #BB864B",
"X. c #B7834B",
"o. c #AB835A",
"O. c #BD8B51",
"+. c #B68B5A",
"@. c #98826B",
"#. c #91847E",
"$. c #A98464",
"%. c #A4846A",
"&. c #AC8A6C",
"*. c #A6856A",
"=. c #B48B64",
"-. c #B9936C",
";. c #A98D76",
":. c #B18E72",
">. c #AD9179",
",. c #B49371",
"<. c #B3967C",
"1. c #BA997B",
"2. c #B7977A",
"3. c #C18641",
"4. c #C38D4E",
"5. c #C58A44",
"6. c #C28E53",
"7. c #CC805D",
"8. c #C49155",
"9. c #C7955B",
"0. c #C9965C",
"q. c #CB995E",
"w. c #C99454",
"e. c #CF9755",
"r. c #DEA25D",
"t. c #E2A55C",
"y. c #CC9B61",
"u. c #C99C67",
"i. c #DC8B72",
"p. c #D38C6D",
"a. c #E5977E",
"s. c #E58D60",
"d. c #D8A364",
"f. c #CEA575",
"g. c #CBA67A",
"h. c #A59585",
"j. c #B49C85",
"k. c #BA9E83",
"l. c #B39083",
"z. c #B09F94",
"x. c #BEA48B",
"c. c #B8A18A",
"v. c #B8A798",
"b. c #9E9FA2",
"n. c #A9A9A9",
"m. c #B9B1AB",
"M. c #BAB5B3",
"N. c #8E9096",
"B. c #C69D87",
"V. c #D99A81",
"C. c #E49C83",
"Z. c #EA9E85",
"A. c #C2A68D",
"S. c #C6A88C",
"D. c #D8A68D",
"F. c #D6B58D",
"G. c #C4AB94",
"H. c #C8AC98",
"J. c #CBB59F",
"K. c #C7B099",
"L. c #D5B493",
"P. c #D7B89C",
"I. c #E8A587",
"U. c #E4B492",
"Y. c #C5B3A4",
"T. c #CBB6A1",
"R. c #CEB9A4",
"E. c #C3B5AB",
"W. c #CDBBAE",
"Q. c #D1BCA5",
"!. c #D2BEA9",
"~. c #CCBDB3",
"^. c #C1BBBA",
"/. c #C5AFA1",
"(. c #ECBBA7",
"). c #E8BAAC",
"_. c #DFC09A",
"`. c #D6C3AC",
"'. c #DDC4A9",
"]. c #CAC1BB",
"[. c #D8C7B8",
"{. c #E2C7A9",
"}. c #EDC4B3",
"|. c #EECBBC",
" X c #E5CBB9",
".X c #F3CDBD",
"XX c #F0C6B5",
"oX c #E4D2BB",
"OX c #C9C7C7",
"+X c #D6CDC8",
"@X c #DED1C3",
"#X c #DCD5CD",
"$X c #D7D5D4",
"%X c #CECED0",
"&X c #E6CDC3",
"*X c #F2CFC1",
"=X c #ECDECE",
"-X c #E5D5C5",
";X c #F2D1C2",
":X c #F9D9C7",
">X c #E6DED7",
",X c #EBE3DB",
"<X c #EBE3D7",
"1X c #F2E5D5",
"2X c #F6EADB",
"3X c #F2E4CE",
"4X c #CEDBEE",
"5X c #D6E6FA",
"6X c #E3E4E4",
"7X c #ECEDEC",
"8X c #ECE9E3",
"9X c #F3ECE3",
"0X c #F2EEE9",
"qX c #F6F2EB",
"wX c #FAF3E9",
"eX c #F4F4F4",
"rX c #FAF9F5",
"tX c #F5FBFD",
"yX c #FFFFFF",
"uX c #F9F7F7",
"iX c #EFF1EF",
/* pixels */
"                                                                                                    ",
"                                                                                                    ",
"                                                                                                    ",
"                                                                                                    ",
"                                            >X[.                                                    ",
"                                        [.Y.R.P.( _                                                 ",
"                                    #Xj.` E J E :.P ;.                                              ",
"                                  #X>.%.>.&.W 4 E ,.H                         >Xm.z.E.+X            ",
"                                  j.x.[.`.k.&.J 5 $.3                     ,XY.E Q <.x.c.v.+X        ",
"                                E.J.Q.k.$.( Y 4 6 6 2 #.                #XG.z ` !.`.Q.J.A.j.].      ",
"                                K.S.W H 6 2 1 w q 9 0 * * & f         $XQ.J ] `.R.J.J.J.R.J.c.      ",
"                              @X1.P 4 w 9 0 r y u u u 8 e a b M (     @X%.J K.!.J.J.J.J.J.T.J.c.    ",
"                              K.P p 0 r u u u y y e 8 s +.r.d.0.G j E.@XY %.Q.T.J.J.J.J.J.J.T.x.].  ",
"                              T w e y u y y y y 8 i o.r.r.0.8.6...B !.R.J <.!.J.J.J.J.J.J.J.J.J.v.  ",
"                            @.9 e y y y y y r 8 U q.r.0.9.0.8./ Z V K.K.J k.`.T.J.J.J.J.J.J.J.R.c.  ",
"                          _ & q 9 r 0 7 & 7 t W t.e.9.9.9.9.y.8.V L <.x.Y 1.R.T.J.J.J.J.J.J.J.T.c.[.",
"                        @.& % 0 d i 0 f M.N.I t.0.9.9.9.9.9.9.y...K ' %.' &.k.K.T.J.J.J.J.J.J.J.A.~.",
"                      &.& $ f $XOX%X6XyXyXU.5.9.9.9.9.9.9.9.9.y.6.Z L E E ` %.G.Q.J.J.T.J.J.J.J.G.W.",
"                    1.* % n.yXyXyXyXyXyX=X| 0.9.9.9.9.9.9.9.9.q.0.~ K ! Y T W k.`.J.J.J.J.J.J.J.A.~.",
"                  S.& 7 $XyXyXyXyXyXyXyXf. .9.9.9.9.9.0.q.q.q.0.9.X./ F R U Q %.J.Q.J.J.J.J.J.R.A.].",
"                F.1 7 7XyXyXyXyXyXyXyX3X} 9.9.9.9.q.w. .X.D  .q.0...6. .( _ L Q <.`.!.T.J.J.!.Q.j.  ",
"              _.p % 6XyXyXyXyXyXyXyXyXP.} 0.9.9.q.3.=.].OXm.:. .0.6.9.4.^ ( L T R ;.K.!.!.!.G.*.*.  ",
"            {.s # OXyXyXyXyXyXyXyXyXyXf. .9.9.q.3.1.4Xn.@.@.#.L  .q.y.8.V ! ^ D K U %.<.1.:.E z v.  ",
"          {.T # b.yXyXyXyXyXyXyXyXyXyXu.4.9.9.5.-.5Xh.; : : 3 4 ! 0.y.O./ 8. .! Q Q E Y Y Y L E     ",
"        {._ # d yXyXyXyXyXyXyXyXyXyXyXy.4.0.8.A %XM.> - X O = 6 P w.y.6.9.6./ ! I R _ W ` R J       ",
"      '.Q # f yXyXyXyXyXyXyXyXyXyXyXyXf. .y.3.( 5X&.G.OX, . . = K 6.q.0.0.8...C I _ ] *.] '         ",
"    `.-.y d 9XwXqXrXyXyXyXyXyXyXyXyXyX'.F y.F >.tX$.yXyXh.o O + P 8.y.0.0.9.8.8.F K ' @.m <.        ",
"    Q. X[.1X;X X X-X=X,XyXyXyXyXyXyXyXqX4.5.A v.yX$.:.m., @ . = ) 6.O.6.9.0.0.q.q. .L ^ M &.        ",
"  ~.}.:X:X.X.X*X*X|.|. X'.=XyXyXyXyXyXyX=X4.h E.yX-X; + X O + 5 I  ...6.9.9.0.6...6.! Z M j.        ",
"  ;.(.:X.X*X;X.XXX}.}.;X XL.-XyXyXyXyXyXyXrXg.Y.yXyXA.< ; : z ( O.q.y.0.9.9.9.y...D ~ ! M           ",
"  v.D.(.}.(.(.}.;X;X|.|..XD. XyXyXuXeXeXeXyXyX/.+XyXyX+X:.L x 4.d.9.9.9.9.0.8.O.q./ Z / c           ",
"  7X{.{ Z.C.a.C.U.}..X.Xa.V.qXeX7XeXeXeXeX7XtX1XT.[.[.,X,XW.L.w. .0.9.9.9.0.8.C O.O.Z D v           ",
"  $X2XD.i.a.Z.C.a.Z.I.p.p.8XtXeXyXyXyXyXyXyXyXyXyXqX=X9X1X3XyX9Xu. .0.9.9.q.8.Z Z / ~ N ^           ",
"  ^.iX3XL.V.a.i.p.{ 7.P.iXyXyXyXyXyXyXyXyXyXyXyXyXyXyXyX2X9XyXyX<X9.6.9.9.y.O.C Z Z / h x.          ",
"    7XuX3XH.S.*X).&X7XyXyXuXeXeXeXeXeXeXyXyXyXyXyXyXyXyXyXyXyX0XoXu.6.9.9.q.X.Z / / S v             ",
"    $XyXrX'.S.yXyXyXyXuXeXyXyXyXyXyXyXeX7XeXyXyXyXyXyXyXyXyXyXqXF.8.9.9.y.6.Z / / / h Y.            ",
"      7XyXrXS.P.yXyXyXeX7X7X7XeXyXeX~.uXyX7X7XuXyXyXyXyXyXyXyXyXg. .9.q.9./ Z / / h ,.              ",
"      ].eXyXqXB.oXyXyXyXyXyXyXyX8X].E.7XyXyXeXuXyXyXyXyXyXyXyXyX9.4.y.q./ Z / D h o.                ",
"        +XyXyX9X,.[.[.@X#X0X>XH.v.>XyXeXeXyXyXyXyXyXyXyXyXyXyXL.3.y.8./ Z / N j ,.                  ",
"          OX,X-X( l.@X8X>Xl.l ) eXyXuXyX7XuXyXyXyXyXyXyXyXyXP.5.0.O.Z Z S k n Y.                    ",
"            M.Y.,X&XB.B.H.7.[ P.yXuX7XyXyXuXyXyXyXyXyXyX1Xf.F ../ A M j B k.                        ",
"                6XtX-X) l s.I.7XyXyXyXyXyXyXyXyXyXrXoXf.F N S M j v o.G.                            ",
"                    6X$X1.-.[.9X1X2X9X2X1X=X{.F.u.S g g j c V =.G.                                  ",
"                            J.,.=.+./ ~ B v c b n o.2.A.                                            ",
"                                                                                                    ",
"                                                                                                    ",
"                                                                                                    ",
"                                                                                                    ",
"                                                                                                    ",
"                                                                                                    "
};
