/* XPM */
static char *result[] = {
/* columns rows colors chars-per-pixel */
"50 50 85 1 ",
"  c #073803",
". c #0C3C04",
"X c #0F4004",
"o c #144406",
"O c #174807",
"+ c #194A07",
"@ c #154609",
"# c #164809",
"$ c #1C4D09",
"% c #1F500A",
"& c #23540B",
"* c #27590C",
"= c #2B5C0D",
"- c #2C5E12",
"; c #2F600E",
": c #31620F",
"> c #2F6212",
", c #346611",
"< c #366813",
"1 c #3A6C13",
"2 c #366C18",
"3 c #3A6E19",
"4 c #3F7014",
"5 c #3E721A",
"6 c #437415",
"7 c #477817",
"8 c #497A17",
"9 c #41761C",
"0 c #45791C",
"q c #4C7D19",
"w c #477E20",
"e c #4E811B",
"r c #53841B",
"t c #57881C",
"y c #5B8C1D",
"u c #5F901F",
"i c #60921F",
"p c #4C8322",
"a c #518721",
"s c #548A23",
"d c #598E24",
"f c #5B9125",
"g c #5B9429",
"h c #639421",
"j c #679822",
"k c #6B9C23",
"l c #639C2C",
"z c #6FA024",
"x c #66A02E",
"c c #6BA32D",
"v c #73A426",
"b c #78A927",
"n c #76A728",
"m c #75A92C",
"M c #7BAC29",
"N c #6AA430",
"B c #6EA932",
"V c #73AD32",
"C c #76B134",
"Z c #7BB536",
"A c #7DB837",
"S c #7EBA39",
"D c #83B42B",
"F c #87B82D",
"G c #8BBC2E",
"H c #87BF36",
"J c #8EBF30",
"K c #81BE39",
"L c #90C22F",
"P c #85C23B",
"I c #88C53D",
"U c #8CCA3E",
"Y c #93C531",
"T c #96C832",
"R c #9ACC33",
"E c #9ED034",
"W c #A2D435",
"Q c #A6D937",
"! c #A8DA37",
"~ c #AADC38",
"^ c #AFE23A",
"/ c #8FCD40",
"( c #91CE41",
") c #95D443",
"_ c #98D744",
/* pixels */
"__________________________________________________",
"__________________))__)_))________________________",
"__________________/P)UI)IP())__)__________________",
"_____________)_)PIKSlPPCKgxPPUPU)_________________",
"____________)K/IIgK31x56c<10llKVZ)________________",
"___________))KlPC0**441t1,1&<62#KV((______________",
"_________)//KZ*9,06ktv80<y86r,&8dtlK()((U_________",
"________(PKKVw*=r6tjrr*=,-=yq:hdtd,VdKKZK)________",
"_______)IAl,8=,181:,O,$,y11hFDrkqq,&*daa$U)_______",
"_______)IA5::qq,q*+1q6%q,*qytq=gqzv1-&&.-C(_______",
"_______PV264qekyq&.;iD67;uvt&%=,ukr6$61,:dk)______",
"______IPger<=o+1+*;6zRYqzF!M,1qqy,o160.qqvsK______",
"____)PIA**>0<<76*vFTku6&hvkhyDD:,quDb<o$%7rc(_____",
"____PPB5q4*$4FFr,iJ~D==8zhnbT!Ev%=uWW6;8d7-%B_____",
"__IIPl&,tq=tzF!G&qtTq+qhJ6:uFDh6:+qJ6&zDu-,0/)____",
"__Uxa2&%$$X;DTLy=*=6kqqJR66zhDkuJy8uh,6uy1:*d)____",
"__)l&7=.:66.$6,.+,,REk,D7iTTJqqTTD61q&1o67zyuV____",
"__/K7zt68zD8...6ik:GQR,:$yTEE8qq71=16q1:z:qWJB)___",
"_H/K6u6=iDq=&=%&kWRvWDkDiikRQ=:zF66z86&ER1=k6-V(__",
"_/Cuq6,,zE,%6zv6Gi6%b6DWDi6bq&DFbtJ~!TqGz8o6hwgl__",
"_(f6q=6ki:O$k~Dtz66o&DDEWk*yt88&r*7ivy8r%r,qtD79)_",
"_(Z7*6tDz6O$hRD8tDY8&%,Tk7::6688;o.r%%O6=61u7D3p(_",
"_(ZB7qqv7i8q=kDiJJJq6u=Dq=+.qWDWDO.1+..:=Dzv&*$B)_",
"_)K-&6q7qhi6=t&qRJiJRD6TWD=.qRJWy:6Jbty6$1DTuCwh(_",
"_(/s*,&%q6tiJD:&66q~JqhEDz6z,QRT7v!EbibiMt$&6,trV)",
"KHKw91*,66zR~Jq686.k6=:vWDFk6=Dq$rFDG6iREL6:,6kmH_",
"/w--1t6q.6JW~i:,k6hqqD=8qDb*::h8q1:&1%%8hy*=uk03__",
"/w-66ikq.+qzDz%$yREzJ!D8zvi$..jWWG8O&WDD,=%qhk-6__",
"/KBa6vz6=.+==6=&,WDJEyqDJ~!q.,vJEJ;,yF!Ri6*6JzqN__",
"_B@=Ov6,q6+.=qDk=hqDEFDiWGzk8DGWbY,yRyGv7*=8h7,1(_",
"__K3,1=tJDy+6FJJi6hk8kEqkiDk8JDq,16zL,J6=*FED><I__",
"___)g%;qhzJ8&JJ!qWWWq$86,tWWyDWz:,.,i16%.+tDrql)__",
"__)/C36q&6&sqhGq7ivi6OO.D^!D1qR6r:.o$1=;:$j6r3U___",
"__(Kl.&3 <09*6q&y71bLq=.=GRb=&q666:z%*izi1s=fs)___",
"___/-@0g8uhu1$uD~LizD6&=,%7*&;$1iiGEi&y~JteaN_____",
"___)/,,1dzJD..6!b!8iL=rFTq%7FDi*8qETi6,tr,+l)_____",
"____(Ks1@yyD,1;66D6,%@qLWbi6F~i%oqTDv:yit1#C______",
"____)(>.$6$=nTJq&=...$b!zy:&GD6..6qzr6tidaN(______",
"_____(Vat%3hzbu:.%:,+o$r67+.=q7=o1yDGq8&2(________",
"______Ipq<6qq,6*:67q6j&+++=6.;8q*1yvi,6.d/________",
"_______sV9&%ww9@8r*0vv=%$7GD<&jt,-t0t%w3/_________",
"_______))Kw wl@%8<6vnqrtMWGFh1t76V2.s2V_)_________",
"________))l#I99lpa**671qk6,67,r-1Kg&())___________",
"__________)x)___/p.@q<$&r$6>*69>$/(x______________",
"________________)BC/w#  1ohd&&N)S(_)______________",
"____________________Vs-#09)SHl/)__________________",
"_____________________/(S/(___)____________________",
"____________________))____________________________",
"__________________________________________________",
"__________________________________________________"
};
